<mxfile host="Electron" agent="Mozilla/5.0 (Windows NT 10.0; Win64; x64) AppleWebKit/537.36 (KHTML, like Gecko) draw.io/24.7.8 Chrome/128.0.6613.36 Electron/32.0.1 Safari/537.36" version="24.7.8">
  <diagram name="18_Read_Text" id="0gL7tNAM9Hn6sSqH5JbH">
    <mxGraphModel dx="2590" dy="1515" grid="1" gridSize="10" guides="1" tooltips="1" connect="1" arrows="1" fold="1" page="1" pageScale="1" pageWidth="850" pageHeight="1100" math="0" shadow="0">
      <root>
        <mxCell id="0" />
        <mxCell id="1" parent="0" />
        <mxCell id="TnkqyFXpMbC8FNlBYLzv-2" value="Ask user for file name" style="whiteSpace=wrap;strokeWidth=2;" vertex="1" parent="1">
          <mxGeometry x="797.12" y="403" width="173" height="33" as="geometry" />
        </mxCell>
        <mxCell id="TnkqyFXpMbC8FNlBYLzv-3" value="Try opening file in read mode" style="whiteSpace=wrap;strokeWidth=2;" vertex="1" parent="1">
          <mxGeometry x="770.12" y="487" width="227" height="33" as="geometry" />
        </mxCell>
        <mxCell id="TnkqyFXpMbC8FNlBYLzv-4" value="Read full content" style="whiteSpace=wrap;strokeWidth=2;" vertex="1" parent="1">
          <mxGeometry x="582.12" y="589" width="139" height="33" as="geometry" />
        </mxCell>
        <mxCell id="TnkqyFXpMbC8FNlBYLzv-5" value="Print content" style="whiteSpace=wrap;strokeWidth=2;" vertex="1" parent="1">
          <mxGeometry x="597.12" y="672" width="109" height="33" as="geometry" />
        </mxCell>
        <mxCell id="TnkqyFXpMbC8FNlBYLzv-6" value="File auto-closed" style="whiteSpace=wrap;strokeWidth=2;" vertex="1" parent="1">
          <mxGeometry x="587.12" y="755" width="130" height="33" as="geometry" />
        </mxCell>
        <mxCell id="TnkqyFXpMbC8FNlBYLzv-8" value="Show &#39;file not found&#39; message" style="shape=parallelogram;perimeter=parallelogramPerimeter;whiteSpace=wrap;html=1;fixedSize=1;" vertex="1" parent="1">
          <mxGeometry x="771.12" y="589" width="225" height="33" as="geometry" />
        </mxCell>
        <mxCell id="TnkqyFXpMbC8FNlBYLzv-9" value="Show error message" style="shape=parallelogram;perimeter=parallelogramPerimeter;whiteSpace=wrap;html=1;fixedSize=1;" vertex="1" parent="1">
          <mxGeometry x="1046.12" y="589" width="158" height="33" as="geometry" />
        </mxCell>
        <mxCell id="TnkqyFXpMbC8FNlBYLzv-10" value="" style="curved=1;startArrow=none;endArrow=block;exitX=0.5;exitY=1;entryX=0.5;entryY=0.01;rounded=0;exitDx=0;exitDy=0;" edge="1" parent="1" source="TnkqyFXpMbC8FNlBYLzv-20" target="TnkqyFXpMbC8FNlBYLzv-2">
          <mxGeometry relative="1" as="geometry">
            <Array as="points" />
            <mxPoint x="883.6101960784312" y="353" as="sourcePoint" />
          </mxGeometry>
        </mxCell>
        <mxCell id="TnkqyFXpMbC8FNlBYLzv-11" value="" style="curved=1;startArrow=none;endArrow=block;exitX=0.5;exitY=1.02;entryX=0.5;entryY=-0.01;rounded=0;" edge="1" parent="1" source="TnkqyFXpMbC8FNlBYLzv-2" target="TnkqyFXpMbC8FNlBYLzv-3">
          <mxGeometry relative="1" as="geometry">
            <Array as="points" />
          </mxGeometry>
        </mxCell>
        <mxCell id="TnkqyFXpMbC8FNlBYLzv-12" value="Success" style="curved=1;startArrow=none;endArrow=block;exitX=0.16;exitY=1.01;entryX=0.5;entryY=-0.01;rounded=0;" edge="1" parent="1" source="TnkqyFXpMbC8FNlBYLzv-3" target="TnkqyFXpMbC8FNlBYLzv-4">
          <mxGeometry relative="1" as="geometry">
            <Array as="points">
              <mxPoint x="651.12" y="554" />
            </Array>
          </mxGeometry>
        </mxCell>
        <mxCell id="TnkqyFXpMbC8FNlBYLzv-13" value="" style="curved=1;startArrow=none;endArrow=block;exitX=0.5;exitY=1;entryX=0.5;entryY=0;rounded=0;" edge="1" parent="1" source="TnkqyFXpMbC8FNlBYLzv-4" target="TnkqyFXpMbC8FNlBYLzv-5">
          <mxGeometry relative="1" as="geometry">
            <Array as="points" />
          </mxGeometry>
        </mxCell>
        <mxCell id="TnkqyFXpMbC8FNlBYLzv-14" value="" style="curved=1;startArrow=none;endArrow=block;exitX=0.5;exitY=1.01;entryX=0.5;entryY=0.01;rounded=0;" edge="1" parent="1" source="TnkqyFXpMbC8FNlBYLzv-5" target="TnkqyFXpMbC8FNlBYLzv-6">
          <mxGeometry relative="1" as="geometry">
            <Array as="points" />
          </mxGeometry>
        </mxCell>
        <mxCell id="TnkqyFXpMbC8FNlBYLzv-15" value="" style="curved=1;startArrow=none;endArrow=block;exitX=0.5;exitY=1.02;entryX=0.5;entryY=0;rounded=0;entryDx=0;entryDy=0;" edge="1" parent="1" source="TnkqyFXpMbC8FNlBYLzv-6" target="TnkqyFXpMbC8FNlBYLzv-21">
          <mxGeometry relative="1" as="geometry">
            <Array as="points" />
            <mxPoint x="651.62" y="839" as="targetPoint" />
          </mxGeometry>
        </mxCell>
        <mxCell id="TnkqyFXpMbC8FNlBYLzv-16" value="FileNotFoundError" style="curved=1;startArrow=none;endArrow=block;exitX=0.5;exitY=-0.01;entryX=0.5;entryY=1.01;rounded=0;exitDx=0;exitDy=0;entryDx=0;entryDy=0;" edge="1" parent="1" source="TnkqyFXpMbC8FNlBYLzv-8" target="TnkqyFXpMbC8FNlBYLzv-3">
          <mxGeometry relative="1" as="geometry">
            <Array as="points" />
          </mxGeometry>
        </mxCell>
        <mxCell id="TnkqyFXpMbC8FNlBYLzv-17" value="Other Errors" style="curved=1;startArrow=none;endArrow=block;exitX=0.5;exitY=-0.01;entryX=0.85;entryY=1.01;rounded=0;exitDx=0;exitDy=0;entryDx=0;entryDy=0;" edge="1" parent="1" source="TnkqyFXpMbC8FNlBYLzv-9" target="TnkqyFXpMbC8FNlBYLzv-3">
          <mxGeometry relative="1" as="geometry">
            <Array as="points">
              <mxPoint x="1125.12" y="554" />
            </Array>
          </mxGeometry>
        </mxCell>
        <mxCell id="TnkqyFXpMbC8FNlBYLzv-18" value="&lt;font style=&quot;font-size: 24px;&quot;&gt;18.&amp;nbsp;Write a Python program to read an entire text file.&lt;/font&gt;" style="text;whiteSpace=wrap;html=1;" vertex="1" parent="1">
          <mxGeometry x="587.12" y="110" width="600" height="60" as="geometry" />
        </mxCell>
        <mxCell id="TnkqyFXpMbC8FNlBYLzv-20" value="&lt;font style=&quot;font-size: 24px;&quot;&gt;Start&lt;/font&gt;" style="ellipse;whiteSpace=wrap;html=1;fillColor=#008a00;fontColor=#ffffff;strokeColor=#005700;" vertex="1" parent="1">
          <mxGeometry x="791.5" y="240" width="184.25" height="83" as="geometry" />
        </mxCell>
        <mxCell id="TnkqyFXpMbC8FNlBYLzv-21" value="&lt;font style=&quot;font-size: 24px;&quot;&gt;End&lt;/font&gt;" style="ellipse;whiteSpace=wrap;html=1;fillColor=#e51400;fontColor=#ffffff;strokeColor=#B20000;" vertex="1" parent="1">
          <mxGeometry x="560" y="850" width="184.25" height="83" as="geometry" />
        </mxCell>
        <mxCell id="TnkqyFXpMbC8FNlBYLzv-22" value="" style="shape=image;verticalLabelPosition=bottom;labelBackgroundColor=default;verticalAlign=top;aspect=fixed;imageAspect=0;image=data:image/png,iVBORw0KGgoAAAANSUhEUgAAA3kAAAHXCAYAAAABeZNiAAAAAXNSR0IArs4c6QAAAARnQU1BAACxjwv8YQUAAAAJcEhZcwAADsMAAA7DAcdvqGQAAJLaSURBVHhe7f1fiBtpnid6f2t00TMXaS37JlmUM3UMr9qafHN0UdOMSUdv0DQFnlSh01uJSRLXzeZSoGOVKbJHNsY3VWZx+aYwtmhhXHIHmPW5sUkS49o+ouQ1FMOg02HhoU9daHM1qol5bZRyUUnusJl6YakG0e/FEyGFQiEpIhSRqVR+PyBwRjx+9MQTEVL89Px763/+z//5JxARERERUeD+4i/+wrqJqMf/+l//y7rJlbcajQaDPCIiIiIiognx1qtXr4YGeZFIxLqJiIiIiIiIxtCfWTcQERERERHR0cUgj4iIiIiIaIIwyCMiIiIiIpogDPKIiIiIiIgmCIM8IiIiIiKiCcIgj4iIiIiIaIIwyCMiIiIiIpogDPIcaFafY3NzE8/LDesuIiKacPwOOJp43ojoOONi6EM1UX3+DJU9AIhAWlnErDUJBapZfY5nlT1EpBUssvKJBmuUsanWeb/4ht8B46bZKOPFVh17e51tvde7k/PWQHlTRd28KSJhhTcOEU0AX1rymtXn2HxeRVP/u1He7Po7KOJXuueo9n2jBsqbm3jeP4EDU5iNhAEA4ciczZdER7P6HM83y5ik3wyNX0K7X8/xvFxFY5Rq1U1indHB4LVDXrm7dpx/B4wDd8cWjCDL0Kw+xzO1O8Czd7TOGxGR33wJ8vb39oATU5gCADTR3Ifp76Nvav4cVlZWcG7Ir3v7e3sY+r0zEfawV69AfTYowHbm+NQZ+Y3XDnnl9tpx+h0wDtweWxCCK0MTjfoegDDi0hJWVlbaL7tTM/y8zWKxnYeE49xniYgmjw9BngjqwuET+t/7Dn5h88fU1AkRcOxb9+iaTYh4c1LCzcMTkTpfpitLS5AiYQB7qLwIvsWWiIio/XwRWcD8LL/XiYgGGWFMnk1fdjtB9m8fNvakWcXzZxWcaO8XZd6PL+HcPFAtv0ClLiLScCSOs4vzptZHm+OzOxa9DIOE40s4N2/+QmqiUd3CVqWu/9oZRjiygLOLs6O1fjYbqG5toV7v/IoaDkewcHYRXr8P+4+HM+pHH+ug1/VeOI6lc+Z61FOXN6HWw4gvncP8vrs6M5dhoVnGC6PewhHEzy6iq2rF/0Cj/AJbQ+pB5AvEl85iqmE6H33zdaaT7znMNoaV1801CcfHJoi0qp5fN/1cTMF9GZxcZ6Z7b277uShDOI6lc7No6PmHI9KAX9j78Hq/Oa4zp1zWmZt73kn9tun51nu7r/Xesy44LENQ95DgrM4cl8H1tePwOwAI9npwwvWxwWEZOuPaeq4n62e+pzK4pZ+TvucBLs+bmZO8ndQZEdF48KElb4w0q3g+cIyebq+B8uaz9pcwAOzVK3h2QDNwNcrPoLa/JKB3f1TxbKRxjE1UX6iomB7KAGBvrw71WTBjI7pMzUI07tVtxuo1sF3Xf331/E0Yxv7Wczwz19teHZWeYxMPJaptPdhdG3uov7CcD9t83au/2LQpr10ZnF6Tbo6tk9Yxp2VwcZ3tb+kBHsTxb5kefvfqW/Z14Ss3deaBozpzc8+7qd9mJ18Xp3k4N2UAgrqHnNeZ2BdEGVzz/XoIjrMyTGH+nOjGWFfNddlE9UUFewgjftYawPqsWcXz9nhwPXirq93jxA+o3pzVGRHReAj93d/93X+ybrQKh8Xg5W4nMLewgIWFMJpb2whLK/jbswtYiPwZGtoOZoy/54xunAF46/+HhraDH/9NBNHpn6D5//1/8N929vDjX4i/savh/9l+C//bX0Ux/ROIh6Ktbezs72AfYcSlX+IXZ/8aC5Ewmto29vffQnhhDqLExvF1jnE/HOk9nhNzepoFhJtb2N6PQFr5W5xt/98FURZDo4z/+t/2gYiEpb89i79eWMDCQgTh5i62d+r4Y3gB1rdw5o/Y3f0jZv5KEsfUzlfD9v4+3vKY7x93/wXazo8IR0z/v9lE9du/xz/vA4j8Fc7OnQDwE0z/eRNb2zud+jc0/jtebO8j8ldnRR4u60yUYQ8//vgjwhEJv/zbs/jrPsfWrP4D1PqPQDgO6Ze/wNm/NtXv/h52/hhun0Pj2H78EUPzdaNTXku+f7aLbfP1Cbi6Jt0cGxrf4u//eV+0nv3qF+I6M/JEBNLKL/D/blex8zI4vs7+uIt/0Xaw9+OPCMeX8KvoH7G1vYP9/R8RkVYg/ZsGtJ09/GTGZR27vHZc1ZkrLurM1T3vsH4hzvF//W/iHHeObQGRcBPa9n73PeuK8zIEdQ+5qTPHZXB57Tj+DgACvB4ccntsrspwAnPhJra269huivvFuK8i0q/w7rTHMjilf5b8aN1u9ucz+Gl0GiJ3N+fNTJzDvmld1RkR0eEbvSWv2cQ+wugMydvDnvnvAyMGZIfDYezVG0N+VYtAWjnX6dM/NYs5ux6pAWiIJi1IXd07pjC7uCB+Ld32+rvzFOYXFy3jFKYw69OB1VXTr6bPnqFSF92hJHO3ltk5RICe+m9s14FwHAv9esA4pXfvE0fYObb9pvFuxqD8CKRz86ZuZVOYXTyLeBhAfbv3l/2h+XoTji915zsvzrG1foRh16S7Y2s2xUDVyILpV/apWSzEwwD2YX9ow8oA99dZOI6z5uZb/ToQ42mD5q7OvBleZ+7ueaf120R1S8+369jgQ6uK0zKY+HwPuasznc9l8Mbv6yEYrsswuwgpIlrQytUqXoj+m967A7sxNY9z1slRIlLXpCsrNkME/Oa6zoiIDpnnIK89tf6zCvawh8ozPQBQ60D7bx+6Qw0yNaW3LkAfkB1GZCGCcFeXwRPomXfFZjrl2cUVrNiuo+MnfeZR1KH2LEugd0PZb9oEAA41Gyg/tyx5MGSMhCfhMCJxCUvnrPWlBxHm+m9WsVUHwpHRxyxE5oadHWNQfu/5BaYg4oreAGd4vt70TvhzAraN4rAvc/c16e7YjCCqvm3qRtRsYKuyZ39PwD5v2/vCxXVmPe/Wv4Plrs48scm7u8483PMu6hfhsOkz0EduyuD7PeShznwvg0dBXA++81aG2cUlxMNAvVLBnh7sHB/e6oyI6DB5DvLGyd7ePtDYRj0cwezsFE7oM24arRnHQrOK589U1P0dnNPWNbvmuXNYnLd/WJ+ajSCMPdT1KK/ZqGMPESx4H4xHXswu6C1VFTwzHkae6Q8jNg+ijgV8nR17jus3wFmMHZeBjpcArzkiIvKd5yDPWH9mKR4WXRj0AECKiC5ZSysrWFkxZu8LXrO5r6/NJ7rHHF7XiUEtA3rrQbt+bF4eu500tirYAxCOS915SwO6WAVBn4BFdEnUu8sNDSoG1ZkHtl3wjF9i+7RiHYRmA/U9jLaGpNNja2yhsmcdTxtGJL40YOa44cbmOmtzcO04rbNAuLvnndev3iq8twfrT1miW5l3zssQFHd15p2Da8d343Bs3srQKKuoI4y4FEcYdahDJxsZVIajxludEREdJs9BnmG/66c948HpoOgPOvtbeFHZa3fXmZ2LAPUtbO0F2J3Jxgnx1IV6w27MlXAiHAb2KnhRbgTyBXhi6kT7i6bZqKK8NdoDn3tTmF+IAHsVbFUbqO+FER8wGM9JnTlnjH+pQy2b8xNT6Ff6dt0LiumImg2UX4iHZ2/dytwdmzF+ZOHsWSwtGQ8i57Do068uh3+dObl23NVZULzc88Pr1+huWseW0Se+2UD1+SYG9Kp0ZXgZguOlztwYfu0EZxyOzW0ZmtXnUOtAOH4W87PzOBvX/3+f8RhOynDUuK0zoYlqWXR7fn5As3cTERlGWCdPaJQ3oe4ba6Ppa+qcGLTOjJ86a/iI1kR93IOxfg/0X97av7A5WQdHN2TNH9v1fvr8n+605jL36lmLyCFjLbl+Rs3X3f83rVPUZ928Ngd11rcM+v8duraVIRyBZBpH6C5f5waei55rz8U16eHY7PSud+a8DIPyhfk60+9BGHVordNha1w64eDacVNn7jivMzf3vOP6heVzziQciQD1uml9UHfclCGoe8hLnbkqg5Nrp08ag+115vP14Emfcnv+HrKuhyc29l8/D07L4IWDeu7z3gbv59hFnRm67lHTMwoR0QEYsSXP2nJ30H32jV+z0d1iZ6zZBozWNc6t2UUsSZH+k2sAoqXr3BKkSBgDk7k0NX8OS/GIKc8wwhEJS1Lc1/dxpjOj3NCJNhzVmRuzWFySEG9fAOjUhecHeh8Yk9X0PAW44fzYpvSZPCHeukv/9c6GG6vrzNG147zOguP8nndVv1PzOCfFO8cfDiMiLeHcQk9KV1yVITDO68wTR9dOUMbh2JyWoYHyM7v18KYwf1ZcD93r5+kcleGocVpnJlOziOifPeED6DVARGQ2cksekZ1GeRNq/Xj+ctm3ZeHAGL84RyAtmVvs9H1lsQTG4ZWPiIiIiII0YksekVUTjbIxfmPh2AV446HTom6d1LvZ3Mee6Ed7CGtZEhEREdFBYEse+cM6tmHYWLwJNj4tedbtHaOPjSEiIiKiccWWPPKZMd7peAZ448E0dsQyeCQcjiAuMcAjIiIimmRsySMiIiIiIpogbMkjIiIiIiKaIAzyiIiIiIiIJgiDPCIiIiIiognCII+IiIiIiGiCMMgjIiIiIiKaIAzyiIiIiIiIJgiDPCIiIiIiognCII+IiIiIiGiCMMgjIiIiIiKaIAzyiIiIiIiIJgiDPCIiIiIiognCII+IiIiIiGiCMMgjIiIiIiKaIAzyiIiIiIiIJgiDPCIiIiIiognCII+IiIiIiGiCMMgjIiIiIiKaIAzyiIiIiIiIJgiDPCIiIiIiognCII+IiIiIiGiCMMgjIiIiIiKaIAzyiIiIiIiIJgiDPCIiIiIiognCII+IiIiIiGiCMMgjIiIiIiKaIAzyiIiIiIiIJgiDPBojRaTlNIrWzcCQfUREREREZAgkyKumL+BG6AJupF9ad3nwBtXcXeRDep7668mEPe0X03cQCt1BKP3P1l0e/CuKuQLkkJ6n/krb1Fkx938iFLoDOV2GZt0JAFq5J59QqBBAsKUhJyehqIBtQTQAqoJkiIEeEREREdEggQR5fqqmL2MjU8KOdQf1VUz/ZyQz/wTVuqPHP+NpZhcAoCr/hIJdcHVAiukYMqqEbC2PRNS6F0A0gXwtCwkKknbRKhERERERAWMf5Glf4e8V8c+Z7BVcaj3Gdf11PmFNTIBoebup15mU/feotS6jpb/yPXX2Uyxnp0Xa1F8iaRtcLaKk//+antZ3xTSSCiBlH2LdrgyG6DoeZiVASdq2ShIRERER0bgHed/V9Ra8U4gnzyCgEGOyfLert+BNYzX5UwyKmQAgsf4f0GpdRim/ODRtMDTkbiqAlMXDgRGeEF3/FCkAys2cba9OIiIiIqLjzocg7w2q6WtdY+Y29JakXr3j6/Lpr1A9qKf1YkGMKZPL0PCvKKbFeLT+Y9J6x7bJ6TKKvQmhFctIy538QqE7kOUCcjZpob+3Od9k3zoLgFEPgYyzc15nAIDiLWRUQFpNOgwyE7ialQA1g1tDClxMywiFZLb6EREREdGx8tarV6/+ZN1oFYlErJt0L/EkdBsV62ZD6gqu58/of7xBSb6Mb2wHislYbX2CeYgumvnYo8Fj8KQPcan0gfuWvWIBoeQ/AfhLpFL/BMUaWKX+PVr5n+p//Cty8n9Gxra8f4lCK4l270etDDn2f/cZAzeNbO0/mLoh/jPSof8C61u3dZXBoYHvr5P+HWolvbWuXQ9mlmOyoeX+T8QyuwPSuqgzXTEdQlKRkK2VBnfVNNNykGMZqKkCWr19UHVFpENJUc9SFrXSusMgkoiIiIjoaBupJa+aNgK8U4gX7rTHy62mrCmB3dxv9ADvFN4z0tauIA4AKGHDl5k4nRIBXqrwH7vHmin/1G7N0nL/lx6sTCOrp2vV/j3Eof0TkpZZMOOpf4dCTU/XuoxW7d9BAgDsYqPwr+10xbQR4E2337/VuoyCTZ0FJpFsv6+f4+zc1hmgoVYBIK3ajwfsJ5rEqgSgUrNpfTUksJySAEhIfeq0lZCIiIiI6OgbIch7ia32pCi/xvnESWsCkzeobrwG9LSykTZ6Br/InhL/rrzBLgBEP0DamGClIOv//xTeq3UmXbnupRXPQsr+R+QT/xYAEI39v/St/wM1DQD+FYUNMeuklP3fsa6nQ/SnuGoERZX/0QkwoovI5xeRiOrpACB6WgQiANQtI8j7ZzxtT4ryv7fff2SmyVFahb/UN04jW+tMutIyWvEC47LOAADfYUsFEI+5LFsUsTgAdQvfWXeZJPIltFol5G2n6yQiIiIimkzegzztTbtL5UxsUIAHAA3s6F34djKXu9a7u5cRwR/UugjyDsQ0VpOmAKvdsmV0q/xXEXwAUDP/uWvsmuiuCEDd7QowNO2fkZbN4+xsui1q/6PdtTUe8ynAGxvu64yIiIiIiPznPcijjmIBsdh/gaIaM1sSEREREREdjgCCvDfY7ZmJZRYzetfFmWxn7F73S594ZSz8Wyzo5ZWypnF2XS9jEpF/Re6mPomJ9O9QaHeR/I/I6nkM969ibNqR5qbODKfF/xk4ts6OMZZvAaetu4iIiIiIjjnvQV70DOL6Q33l5ld6V8t+M2iexPyqGHu3k/kNnhTfWBOMmX+L5KoYR6Zm/i+ki52JUwaKA6f17p7F9iQkJqZxespNY8mGQTNSHiVe6swYW7eBgpsoTytgw8FYPi6hQERERETHkfcgzxS4QX2Ee6ELuBESAd6MpG83mV5f0YPC16gku8fl3QhdQD43XoFfdP3nSEkAsAsl2T3GLBS6AzlnBDH/VgQqAKD834jp4/GSxji0Lp1ACGonbUYFJGnUqWSc03Kd9fza4+XwT0gaxyd31gx0k9Z5nXUkllMAVGy4iPK0wgZUAKnlfssnAEARTxUVgMqF04mIiIjoWBkhyAOm17/ApayMmfYWsZRC+lO7dfXO4HzpDlZTp0zpx9lPkS/9RxRS0/pSCP0l8iJdxzRS2X9vuzxBdP0/oJb9S1OeYimF0qfGDJ9HmfM6a0tchVjb/JbDxdg1FDZUQMri6qAYj0soEBEREdExNeJi6EQ+KKYRSiqQsjWUhqyIruVkxDIqUoUW+q6DTkRERER0jI3Ukkfki0QehRSgZtaQG9SvUsthLaMCqQIDPCIiIiKiPtiSN5b+GenQf4G+bvoQf4lCz6yVR1ER6VASClIo1PLoWb9cKyIdS0KRsqiV1tn9koiIiIioD7bk0ZhIIN8qiIlb7CK4KAAphQIDPCIiIiKigdiSR0RERERENEHYkkdERERERDRBGOQRERERERFNEAZ5REREREREE4RBngNaTkYoFIKcdrZcNx09u7lruBG6gHz6pXXXBCkiLacdLjpPBGhfywhdDEF+wKtm8kz+50Hw392D6nDQPiKi4B3rIE8rpiHLIYRCnVfvd4GGwoYKAFCVp30+sItIm/IIhUII9WZEY+sNqhuvAQA7ShlV6+6JoCEnJ6GoAGzWIiw+CCF0MYSQ/jBv/Zu8MwKl9LfWPYdH+zYN+XP9HOuv3vJpKPyj/tlXHvDZZ8qD18zhst631r+7aABUBcnQpAYiTr67RzH4M3Xy65eIxt2xDfK0nIxYUoEqvgMGiCK5KgEApNTyBKxHR71OYn71FABgJrWIeevuMbObu4Z86K6rYLSYjiGjSsjarUEI4PQ74hq3kt45bdli81A/MFBwR/tahnzx6DwUHbXyQi9z7EsF6rZ1j1UUyb/RP/sW+dl3FDi/jwFEE8jXspCgIHmIP0pqORlyIIFQsN/dwz5Tx6V+iej4OqZBnvELn4RsoYZWq9V+5W2+CaLrJbRaLZTsdgL6Gm9GHgWkrLtp7E2vf4HrrcdI589Yd42d3a3X2LFuHKSYRlIBpOxDrNs9jJgYD4P9HhaD9t33Kob+7jJGjlp5O61zErIf19C632q/8u9a0wLR90to3W+h9NGAz752HvzsGxeO7+PoOh5mJUBJ2vRiORjfbQV3Dw3/7vbI6WfqGNQvER1fxzTI+w5bKoDUp1i3/QmOaFJoyN1UACmLhwOfRlxaLHQFCIMCBRon32FrG8Dip1h/18frgY6s6PqnSAFQbuZsex2SlbvPVNYvER2WYxrkORHkODsNxVwacjtvGXK6ONIXgBhgLiOnWfKW08jZZawVkUvLpjKEIMtpFM1ptRxkfZxiMS0GsIfkHDRoyOl/9w5o9//YgvMST0IXcMP86jPxipiY5RpK2htUc3eRN9LLd1GyHFwnLbDrKO0FPLFWY/GumAgm96br7xuhC9hQAKCEDUvZ22nNireQUQFpNYlBjyPRd+K2f8ffGfS/BhNj0WTkftBQ/DoN2ejW+XkauR9MCb9Nt7t7JssAoCBp6QYqf229gix5XpQhP7C7zkT3UvH/NeQeiPFxoYshyA88PnR5Kq+gDaqHNqfHFhSbLrl2Y7o88f/YHF9nhh+KyD2QTWUIQf48jaI57Q85yHr346JxzXyuf/bpf/dORuP+2ETe8sjdnA3e7uMErmYlQM3glvWQPLF+B4Qgp3Pd3y3FdHtfUoG4hyzft3LXF5f4PhbbOt8/Rt7ddez8u7vzvQloTr434fwztcPv+iUicub4BHl6wCI+9JMQ3yvJ7i8C2fplEYxiOoZkRjF1UVGhKknERn5/FRtrlrxVBZmYdbyDhtxaEhmlu5uMqipI9qQFKjdlJBU9pbqBW+k1ZPS/VeVm15dhcMc2Dl6jsnYZG5lSp7ukWsI3MfvxcZW1C7jXk1YEfwel+FQBIGE1OeRx5N286Jb3vp5O/3v0ljkVG7+NIfnUdE1sK8hc773O3Cg+sOQJFWo5idjnfa6z7wtIX4whUzb9j3IGsZ4H9aBIqPxORsxBPbg+tmH0gEUEHvpnXznZHcR5zdsl34+tzel1piH32yQyZctn37aCZE9aoPI7GUnjmtnewK0Ha+1rSC3f7Aoi3R9bEU/LKgAVyu/6pXHJ430cTa5CAqA8tdaAe73fAYCqZJD0I8LZKiAdirW/f6DnHesTxDm1sRZCrOd7UwR/Vo4/U038rF8iIqeOT5DnWkDj7PS+/EgVUGvnX0Mh5c8vfaoKSO28ayikAEBBz3dLPGUZj9g/raqqkLI1tAop8UCiqEgVWqhlJQAqtr7TEwZ0bMW05VdZ68tzAHkG51uPcb31GNdbV9D9G7i9HRWYSV3BpdZjXG/dwWoKAErY6jm2171ps6dEoFiwaXEbJvGJXs7H+nvKWG2XXbzS6yct/0lDrQJAWoWL5xFnrEHCxRBCfSYgUbcBabGA2v0WWvdrKCxCXGdG64X+INq639L3pVCwdANtP7RCtKQly6LLqMjTyFcCtjO4ZdMqopYzUMzj0G7o93TfWSMHcFteQDzwb6uD6wHejs1/AY2zC/jYhl5nhtmUZTxi/7TqtgppuYbWx/pnX1lF6uMWasv6Z9/3ekJPx5bA8qIEQELqV05bhQISTWJVAlCpefwsNRTxVAGQypq+A1qoFbJILZiSJfLtfeJ7J4WCKX2r1ULJpiukquj3sfHdVdOvz67ZM91+d6u935v6d9tGwVobHj9TfatfIiLnjk+QF11HyfrBnyp0fam0SuuBf9GKXwFTKOQTpveKIpHX++1bIyy3UgWU2nlHkVgWX3GVmvmrJYr1fN4yHrGTtod17IGUxdUEEI11h0WBH9s4SF1BOn8G04CYlXNZBgDs1HoDt5nsne606yuIA9jZeIlda+JA6GNP47HAr+uBFgsofWS6Jn+mX5Pfe3vcKf5Bv87aeULk+5F+nf3B7jpLoXC/1BmH9nYCy4vWNAFzUA/ejm2It9dRsgZt1jGVnx3AZ18Qx2bmoH6BKNY/ylvGI3bS9pjL4qE5YJ/L4uq7vd0ivR5b4qMSWvdLyB/6+MgoYnEA6haM3+xGomygYOqfGU2sI7/ux+QnKRRapc53VzSBfl9bbkjZWvf3pj6OTt0oWIIyr5+pPtcvEZEDxyfIGwv6r4A24w/aXUhH/KUvtezwi1QrIi13xjWEQiGExOCIHtaxB9a/heCOLZHv/oW353UAwbkhvux89s2ZmLVlbRYzQya7OzKsQcL9Flr387bTlKd+ZrfVKw21BsR11tOSqF9nDZvrzGYJgMRH/cschOH14PHYjoTgj214/ep+KCL9eWdsZuhiCKEv+3z2/Y3ls8/ytxD8sR0dCeQLKUhQkUnGEArJSOcs4/FGYbMUgvh+GO0+jsesZ/U0Fibls5qIji0GeceRloMcS0IZvkggEdHk+CEH+XoSyjY/+wKTyKPUqokumpIKJZNBMmY3SRcREQWJQd6B0rtsSN3jFQ66Vap4KwMVgJQ1j51r6WPuvAru2IIbk3fAtJeoqADiJ/UunP1Vn9atmyzq2B160Pqv0R5bUA9PBTW7WREBcZ3Nim5znbFPltcBdD3sNqi8bozjsfllPI6tWNA/+5bNY+da+pg7r8bj2EZjjDVbgM2y6R5ERRfNUgutVg1ZqXeSrm4VdI0oOGxaARu23TK9fqb6Xb9ERMMxyDtgpxfEJCRr6SI0d98SvovHTre/wLRiDumb9l2WnBqnYxsPpnF62ks8WXuEHUuXz+lYBABQefqVPk7vDarpa9hQXrfTWE0vGBO4DBvbZ4wD2UDP/AFjSizerGLjD/2nnj/9jpjMYu1BEZovwZV3Tsrrxjgdm9/G6dji75g++77NIf27ET/7PB6b30soeNY3qDEbtHSOTsshnc6h2PUFEEVy1TJJl8npBWOSE3/uIW9M76wVkV4TPwb0Dn/w+JnqqH6JiPzFIK8f0zo+dksudK3h4yJtdP2h/qtmErFYb6tUv+9OP4kvVUBJxtrvG0tmYJqV2pOgji2wMXmmteduhG5DDCm8PXjdORcqycud/GO3RSte6grOm58bEotiVk/lEe6FLuBG6LII8KRTpkTdjMBwJ3Nb/z/9yysm07GbJW5EtrNrinXFRmFMaKE+TSJmyte87lz0/YfIzkFMT3/d/zK44aS8bozFsZnWAbRbcqHr2FykHYdjE0E5oHwZa79v7MsMlG1rSne8HVsASyh4pBU2+gQ1JloBG+2lc/rPSltRMkjGOt8toVAIsYwKIAW77I0JvNRMEjHT/+leJ88FF9/HBvN3YSiWFN+FqQLyNuX18pnqqH6JiHzGIO/ARbFeEssKHNa47uh6CbVsyvT+kpg+upAdsUyHf2xjSzqFePYKLuWtE7ecwfnah4i3K0xPVxIzcdpKfIJLBdnZJC6JqyLwztzq+1A2Vt7No/ZxCtKcdYdZFOufienpnVRBoByV140xOjbfHf6xRd8vobZs+exbLKD2sQ+ffa6PbVyWUNBQ2FDbsyb3FU1iNSWOTrKZAAUAEF3Hw0IKUlcl6N8v/SZHSeRR6/k/h0iSkMoWULOL8ODlM9Vh/RIR+eytV69e/cm60SoSES0HRDTcbu4a7mVeI1543N1qd1iKaYSSipgm3GbtKSI6vrScjFhGrH3aL66ZVJ6P3cVnquf3ICIaEVvyiCZdIo9CClAzawMmPiCiY0fLYS2j9u2aSH04/Uxl/RLRIWKQN5aKSFvGs/V/pR12GaHjLJEvIAUVmVjavzWriOjo0opIxzJQpWz/ronU19DPVNYvER0yBnlEx0IC+VYBKQk4xME/RDQuogCkFApeJ6469oZ8prJ+ieiQcUweERERERHRBGFLHhERERER0QRhkEdERERERDRBGOQRERERERFNEAZ5REREREREE4RBHhERERER0QRhkEdERERERDRBGOQRERERERFNEAZ5REREREREE4RBHhERERER0QRhkEdERERERDRBGOQRERERERFNEAZ5REREREREE4RBHhERERER0QRhkEdERERERDRBGOQRERERERFNEAZ5REREREREE4RBHhERERER0QRhkEdERERERDRBGOQRERERERFNEAZ5REREREREE4RBHhERERER0QRhkEdERERERDRBGOQRERERERFNEAZ5REREREREE4RBHhERERER0QRhkEdERERERDRBGOQRERERERFNEAZ5REREREREE+RYBnm7xa/wRL6GG+mX1l1ERERERERH2jEM8t6gevMRKupr6w4iIiIiIqIj7xgGeURERERERJPrrVevXv3JutEqEolYNx05u7lruJcZ3Ho3k72D9PpJ8UfxLm4kS4D0IS6VzmA3/RtsKOL/z6Q+xEr+A0x35XsK79W+gBw15/gGJfkyvlEBpK7gev6MeSeKaRlJBUgVSsgnunYRERERERF5wpa8YdQ6/iF9uR3gAcCO8gj39PF808mfYwYA8BqVwpt2GgCA9hIVFSIAvNod4AFFPFVUACqUmzlolr1EREREREReHJsgb3r9C1xvPcb11h28J+kbU1f0beLVbsXrUkJFAeKFO7jeeoxL2VNis1JGFQCiH+CXKbFpZ+Mldk3/s3rrEXYAQPo55rta+AAggeWUBEBC6tMkenYTERERERF5cGyCvFHMZO/gfEIEgNMxo+tqHbt689v8siz+of4e1XaT3EtsKeJf8U9F106rRL6EVquEfIIhHhERERER+YNB3lCnEE+aWvgSn+gtf6bxd4lFxIHuLpvFMioAABkLHG9HREREREQHhEGeL87gF3o3TqPLZvVpCQAwkz2PeUtqIiIiIiKioDDI80l7Ahb196hqRldNSysgERERERFRwI5hkHcS06JvpZg8xa9pLaNnEJcA4DW+id0WXTVtJ1zpKKZlhEIy0kXrHiIiIiIiIm+OYZBnmigFJWzELuBGSLzyOcsSCK6chPypka/Qb8IVgUsoEBERERGR/45lkIfEJ7iUlTFjLKXgl/YELACkD/GLgROucAkFIiIiIiLy31uvXr36k3WjVSRiLBtAg73Ek5DoqjmTvdNn3T0iIiIiIqLgHM+WvCBoL1GSjbF4H2KFAR4RERERER0CtuSNqngXN5JiuQThFN6rmdbQIyIiIiIiOkBsyfPRjCRjlQEeEREREREdIrbkERERERERTRC25BEREREREU0QBnlEREREREQThEEeERERERHRBGGQR0Rk0aw+x+bmJp6XG9ZdRGOP1y8dF7zWifrjxCsUmGajjBdbdeztdbZFpBUszppTOdFAeVNF3bwpImHFfUZ0gJrV53hW2fN4zoPh7Jpsovr8GSp7ABCBtLKI3uIfw2uyUcamWrepLxovTq7fcXAM7yHy2WFe626uXzdpifzDlrwjoFl9js3nVTT1vxvlza6/vWmiUX6O55ub2NRfz5+X0WiOlquhWX2OZ2r3wzRNjmb1OZ5vlnGUfjt1fk1OYTYSBgCEI3MH+NBA5Afn1+9RvI/JnaN2jt2V1/m1TnQcsSXvCGiUN6HC+NVH/+XqxCi/Atn8qtTmx69hxq9rYcSls5ifnbImGIFedv4Kdqga5U2o9cHXyni15PGaHBlb8iaOk/v4YByTe+gQjM85duaolVdwc/26SUs0Grbkjb0mmvtAOHxC/3vfQUvEYI2yCPDCEQlLKytYMV5LEuL6r2Kj0csYWfD5YZrIK16TREREdHywJW9sDWptM/Hwa5D4pSyM+NI5zDt53m02UN3aQr2+ByO+DIcjWDi7CPvnZae/VDXRqG5hq1LX8w0jHFnA2cVZ2GYLDM67WcXzZxXsheNYOjffk4fr4+7RRKP8AltD6kG0YAHxpXOYbZTxwji+cATxs4s27+2sHjr5nsVUw5Tecb5AOBLHwsJ8n/M2hN6SM0g4voRzekHMLXkLTf/qwZsB102bzT03ML3BSd4BHZvDe9PztVPv7d46Wkues3rwXN4h13rf1mX92jZfv8Z53Y8v4dw8UC2/QKWulzoSx9lF62eMtQz2x2af1r687ji8fl3ex57o16VRX0AYkfhZLPbN0+E95ODzV3BTv9a0B33e3N7HDq5fT+fYQf3q37EnpBXMbT+HWt8DwnEsnZtFQ78/whEJ58yFc3Jsrsvr8Fo3c3pNOilvDyfXr2FA2sCfYei4YUvesbWHylbDwbi+JqovVFRMH3gAsLdXh/rM1G++WTWN79M/fOtqe7zf5mbvOMJG+RlU05clsIe9uopnXscbTs0iEgawV0ejJ4MGtut6S46nD0fR3U+1rYfnqPa8H1B/sYln5uPbq6Nik9ZdPeyh/sKSfq+Oivlc6HrzBfbqFahb1pRBCmN/67lNPTgp76B6cMDDNRkU348NcH5vdvY4vHaanfKaM/aBu3pwWl67fH281vcaKG8+Mz0ciryfWWbz6y1D/2PrTetjeQ9bs4rnz8R12bGHeuVFz2efc+4+f93Ub2/agz5vbu/jILir3/0tPcCDuCe3TD+A7NW3TOnH4djcXJOHXN5An2HoOAr93d/93X+ybrQKh/3owkfunMDcwgIWFsJobm0jLK3gb88uYCHyZ2hoO5gx/p4zunE6d2IujGZjG/s729C2Gmj+2Z8jPH0CP7EmBAD8Ebu7f8TMX0n4xdm/xsLCAhYWIgg3NWzv7+Ot8ALmTgD44y7+RdvBj9b/bvbnM/hpdFq8T6OM//rf9oGIhKW/PYu/bue7i+2dOv5o5NujicbWNvbDEZtj/wmm/7yJre0d/PgXEUSnTUfU+O94sb2PyF+d7ZPvYM3qP0Ct/wiE45B++Quc/WtTeff3sPPHcLs8f9z9F2g7e/jxR9El9pd/exZ/vRBB+M92sb2z1102F/Ug8v2xN1/ruRAZ47+/2MZ+JI6lv/2Fnu8CIuE/wx/f+gnmpj1Uwok5/fwvINzcwvZ+BNLK3+Ksvm1hYaGrzjv18OPw8rqoB8fcXpPte65z39lfZ1aDrsmAjg1wfm+6vXYa34rydl3rC4iEm9C29xGOeCyvi3pwVV4X17qRb88xNBvY2t7Hn8/81HQNi/O6s7+DfYQRl34p6jkSRlPbxv7+WwgvzOEE3B2bm/K64/D6dXkfu9NE9R9U1LvOm14Xf7aPP56Yg33Wg+8hN5+/rup3LM6b+/t46PXr8hw7rl/9M3Xvxx8Rji/hV9E/Ymt7B/v7PyIirUD6Nw1oO3v4yYxRPofH5rK8jq91wOU16bC8PQZfv90GpQ3uGYaOJ7bkjbtmE/sIozMkbw975r89mcXiuSVI8QjC2EO9ouLZ5iael6s2vx5NYX5x0TKOaQqzc5YuvFPzONce3ychAr37hHnMn6n7QUP8JAWpq0vMFGYXFxABUN/2+JvZ7BwiAPbq3a2Uje06EI5jYVhPCltNNOp7orznzN1ypjC7eBbxMID6ds+vfOH4Es61j28Ks/Pi2Mxl81QPeneYdr76udi3mxm1XkfDdFKnZuexOO+pErxzUF5P9TCMy2syKIEcG+D83jQbei6aqG7p5e261jFyPXmqh6HlNQnsWo9AWjnXqeepWVir2NOxBVbeQ9RsQHxUms8bRF3M23WzdcLb56+T+h2P8+bhPvaVh/oNx3HWfDL179apKeuDyWEfm9trcgzKG8gzDB1XDPLGVFNf4HPzWQV72EPlmd69TK0D7b97u1E4Jz7gzq2sYGlJQiSsdzux6ZqBZgPl53p5jNeQ/vODiclkgDpUc57mbnX7zZ6uMs7MYiEe7u7u0Kxiqw6EI3ZjLJwwJu2wm6J5CuJ7bR/W584TU9Z3O4HuRnFv9RCZ6y1Fr1ksSiKIr6jPsLn5HOWqXRAfvOHl9VYPR0PAx+by3hx+LnThsGih8o23enBW3oCvdZv7fnZxBSvt2f/cHlvA5T1M+6Kbm7Pz5pTbz1+n9TtG583lfewvt/Xb+11q/bvLoR6bh2vysMsbyDMMHVcM8ghTU7NYPLeCpXhYBJDm8QV6X/a634NzAjQ1q7dQ6p+QzUYde4hgwdvPyEfX7CLOrSxhSYojEt5DvVKB+mwTzy1jieiICuTeHH323kNx1K71o1Zeh5oiajp8QdVvEPkGch+PiTE4NlfX5BiUF3yGIR8xyBtTU/PnsLJiBF4RSHr3MikiukaIpQ/8nWFpSu9OaP71srFVwR6AcNyy3II0SvcF/dfB9nHYvEbpRqcPXhbdHfSuKLa/Urpk7bICmH4NPoGehjsro9vIial297NA6wEQ7zE7j8VzK1hZWYL4gdA8MH4Uva2X3hxEPRyW4I4tmHtTb23e24P10Uh0bfMquHro8H6tN7atR+uG12PzXl5/+XUfd7rr2XanHZXrz99h9Tse582P+3j49evgHLuu3+G8H5uD8jrk5pr0Xl6fBfUMQ8cOg7wxt9/1i5LxgTuKBsrPy6g2LF2jmk00yluii0o7COk4MXWiva3ZqKK8NcoDH3AiHAb2KnhRbvj2Yd4xhfmFCLBXwVa1gfpeGPGROrIbY3DqUMvmfvJiyulK364upgNrNlB+Ib5AzN1GAquHZhXlchWNrkynMCum7sLeiNfRCREJoN5wMkPrcIHVwxgI+tj8vTeN7ll1bBlPrc0Gqs83MWqPpcDqwcW1bjzw1beNmRObaJRNMwV65OrYXJQ3aH7fx+3xRJVneF61fFZWyx4DIZefvy7qd5zOm5P72Mv1O/wcu6xfD5wcm2F4eV3ycE26KW8w/H6GoeOK6+SNuUZ5E+q+sWaKmOa4csJmfRXHbNaX6RKBtNRZD8ZYl6efnvV6gM572K0D06YfS5+su/IdsoZO73o/6D7OPmvOuDOg3sIRSOeM8TlD6qynTpzXg+M1kkRisd6OKVlHBFJ7PJFHfc5Jv3XyhpbXRT144+Ca7HNMhq7yukkb0LENvM4CuHbCkQhQr+OENQ/HnNeDH+UVrNd6n/s4HAb29uzX4hp0zbQ5PzZ35XXB1TWp6/N/bNM61SdPwLK+V990gu25sKQBej9/3dXv4Z83N/dx33qwvX51ferZU/3qdQDj/1rvR/1vo8zujk3npLx90hh66qFv+u5r0lV5++YpjFReoPuc+PIMQ8cRW/LGmrXlzo/xMrNYXJIQj4TRNQdIOIxwRMKSKcADRLfRpXjElFZPJ8W7/79rU5g/twTJWg7fdGbA82ewcqfeOvS6MD9g9BMOIxKXsNTzjRZQPUzN46wUsUz0opfX48NIl9lFLPXkP4qA6mEsBHNsgd2bU/M4J8U75zYcRkRawrmFkXINrB7cXeuzWFyKi7Wo9HSRuISlc3pXdc9cHJur8gbM9/vYyDOOSFemYuHpnudYx1x8/rqq38M/b+7uYw/Xr6Nz7KJ+XXB3bDpH5XXJ4TXpqbyB8fsZho4jtuTRxGqUN6HWvf/C6lXfVggiIiIiBw7rGYYmB1vyaAIZ4xSAcHyBH45ERER0RPAZhvzBII8mR6Osr2vzTAxEty7YSkRERDSO+AxDPmOQRxPIGEvAgcpERER0lPAZhvzBMXlEREREREQThC15REREREREE4RBHhERERER0QRhkEdERERERDRBGOQReVZEWk6jaN3skZaTEQqFIKf9ypEmn7/X4FHHe4iIiEhgkDeBqrlruBG6gHz6K+xad7pUTV/AjdAF3JBHz2uyaMjJSSgqAM26r5tWTEOWQwiFOq/eZ1ANhQ0VAKAqT/s8tBeRNuURCoUQ6s2IDljxQQihiyGEHvh7LhzlqwFQFSRDkx3o8R4iIiJyh0HexHmJrcxrAMCO8ntUBwQgu8Wv8ES+hhvpl9ZdNEQxHUNGlZCt5ZGIWvd2aDkZsaQCVTx7DhBFclUCAEipZSSsu2lsnX5HnDe/Oco3mkC+loUEBckJDVZ4DxEREbnHIG/inMFC9hQAYCb1c8z3DUDeoHrzESqqCAjJhWIaSQWQsg+x3rd+YWpZkJAt1NBqtdqvvM0TaHS9hFarhZLdTgBAAvl2HgWkrLvpUEnvnLZu8sXQfKPreJiVACVp07p11PEeIiIi8oJB3gSaX/8C11uPkc5/gGnrThqRhtxNBZCyeDg4wgPwHbZUAKlPsT6ouY9oRNH1T5ECoNzMDes9fMTwHiIiIvKCQd5YeoOSLMbCPen3y3zxbvdYOePvrtddVC3/bVcfr3cjdBnfGN2flNtd/y+fe2P5XwDiJ4HiV8jr5boRuoYndulceYNq+hry5veW7/Z0MRVlvoaSBuzm7nbSy3dRsn2ifYOqOV3oGvLplz1jCjv5WtL3zRdA8RYyKiCtJuHPI2eQY4Q0FHNpyO28Zcjp4khBgJjYQkZOs+Qtp5Gzy1grIpeWTWUIQZbTKJrTajnI+hirYlpMnBGSc9CgIaf/3TuRhv/H5lX0nbh1k0UR6YshyF9r4keCB7IYa3cxBPlB/6BseL5mCVzNSoCawS1rVXnQ7sptuTft74ve+/iGfBdVbdTPB6fG6x4S17A8ga2qRER0lDDIG3M7tSEPSvGTB9Nap9zGveQj7LTHxbxGJXO5fxA61BuU5MvYUF5jx7R1Ry1hIyYCOqvK2gXcy5Q66dUSvrFJW01fxoY5HV5jR7mNe7aTx7xGZc2SXi3hm1hvgAwAxacKAAmryT4hnh6wiAfCJBQAUJLdD6By/wd7PxXTMSQzCjpDmVSoShKxkd9fxcaaJW9VQSZmnfxDQ24tiYyimsoAqKqCZE9aoHJTRlLRU6obuJVeQ0b/W1VudgWRwR2bB+/m0brfQun9PteE4fsC0hdjyJRNpS5nEOs3sYrTfHXR5CokAMrTPvk5pX2FzWRvV+4d2/vtJZ6Eeu9jqCVsxJ7Y3kNDHel7qIinigpAncBWVSIiOkoY5I2lk5ge8iP+bq0OAJhZmBUbEp/geusxrrce45I+Js/OtN6V83rrDt4z5nVIXWn/3+utx0ivn7T8L530IVZrj3G9dQVG8SpPvU3aspv7jWhJbOcpyrSaOgXgNb65Zc33NXZUYCZ1BZeMtFmRtlIwBcLFu9hQxDGJdKZ81Uf4B5vn3558UwBQwlZPWg21CgBpFf1iPPcCGiOkjxtEqoBaO/8aCil/WntUFZDaeddQSAGAgp74Ip6yjKXqn1ZVVUjZGlqFlHhIVlSkCi3UshIAFVvf6QkDPragqOUMFEjIflxD634LrRv6+S73mwnSpWgSqxKASm3k4GIm9SFWa3c6nwu1DzED2NxvZVQAAKcQL3Q+Qy7VriAuRTrpAjVO91ACyykJgITUp3619hMREbnHIG9MTS+IQG1nqwGYulkaXSl3t8Sv7DOxPgGZ72Sslj7QJ3I5g4WRnqTeoLrx2pInAJzEfP7XIvhUyj2tADPZO0jnz+gtlycxv76COICdjU5XzOrTksi3nU5PmxdpbYPS1JXufJdlwLYVVR8fFI/1f3iLrqNkfeBMFbomjGiV1vv/f5+IFscUCvmE6b2iSOT1sVvWCMutVAGldt5RJJbFBVGpmcOLKNbzectYqk7aHtZxjlIWVxNANNb9i0fgxxaYFAr3S1h/Vy/12wksL1rTjCKKWByAugUjHvYk+gHO5z/AfNT02RI9g7j+o5DxmdTtNSo3v2p3tZ6OnsH50geYtyZz4ojfQ4l8Ca1WCXmOISQiokPEIG9MTcfMv4IbQVF3QHOgpIiP3UIbottnatHmIdBoxaxj19Ic0RvQzmKma5b5N9itAEAJG+bxQaELuBG6LVocKm966i++fMay5ajTWxyhIGkdq2R0fxuxtSe13G/2QgutiLSsj7MzXknFmgpA7zhH699C8McWmMXeaf0TH7XQup/v2X7YdrWXeCKbx9mZxvCaJc53egSoj7AR08fvpTsB39F0hK8zIiIiBnlj7HREdI+qvMGu9hIVFZiRTgHq71HVjGDmFGaGzK5OdGi0HORYEsrwBc5onBTv4l7sNiqqZZydrZOQS3dwqfBhu6UPAHaUR9iIXRthzC4RERGNgkHeuIqeFEGeWsdu4ffYwSnEP/05ZvAalYLRXSqC6d6mjqPDpktmpzXOwbHpwW9n8hm9FVD60DQez/IqjbKsxGks+DTmKVh6tz0paxpLZHkdRHe3WxmoAKSseUxTSx9z59V4HNt4MsaMLsD7bz9vULpZEv+0jJdtt9j1OInpxAc4XxLpLmVFd2fgtX336COB1xkRER1tDPLGltEVsY6/33gNSD/HfEKMi9nZ2BTBzUhdKE2TuyjlA+5aZYzpK2Gja2mDN6im9QlZbLtymsbIaS/xZO0RdizdLacXxAQrm+mXPd09R2eMedpAwfe8/XV6QUwOsZYuQjvkssZjp9sPw1oxh/RN++6aTnk9NmN5ht7lGCaEVsDGsDGjbsSh/9DyBlVjoiSL3dxdsTxJ+zycxHRS74VwxI12nXEJBSIiOlwM8saePqvk6hlM4yTmV08BRjcq0/IJnfXvLuBexpj63DQ2zWb5AGOCEaDUHktjntwlSPN5fYZO5Tbumcb9bCivAUlMnGJVSV7ujLGL3RaBbuoKzpsGNE2vi4lbdpTbuGc6JuM1avcxMWmIig2/orxiunesj2m6eLl73QDHaaPrD5GVIKZ7j1nHFIk16YJ2ekE0/SjJWPt9Y8kMjFUSvPJ2bMbU9r3LMUwKrbAB1c14SVvmH38e6ffmZWy0P1Os6r33Wkz8+AKcwntXe+9j37m4L9ykHe064xIKRER0uBjkjS3zMgqnEE+KSUfME7K0l0/wKvEJLmVly+QlB+UMzteu4L2UebmHU2Ipg9InNq14FtIpxLNXcKknGBRjhFZTp4JpTUhcFQ9+mVv+THsfmCjWS2K690M5vQCi6yXUsinT+0ti2YVCdsQyeTm2BPIjdRMddxoKG2p7RtJRzOeNpUwM+r1mszTL9PqvsdrzGXJKX4LhC8i+NCkeFm/XGZdQICKicfDWq1ev/mTdaBWJHNR6R0S9dnPXcC/zGvHC465Wu0NTTCOUVCBlayiZp/ynsaYV01hLKlCRQqE1fjNajkLLyYhlxLqC+Uk6MCIiIvKELXlEbiXyKKQANbM2kd3+Jk0xbXQVVUR3xsJkBXjQcljLqECqwACPiIiIAAZ5RN4k8gWkoCITS6N4ZAO9ItKWcUb9X+kx7546nCSlUKhNWEuXVkQ6loEqZVGbqAMjIiKiUTDII/IkgXyrgJQEcODNeEvkxZT3pVIeiUk7V1EAUgoFTudPREREJhyTR0RERERENEHYkkdERERERDRBGOQRERERERFNEAZ5REREREREE4RBHhEdWc3qc2xubuJ5uWHdRURERHRsMcgjGkWjjM3NTRxEjGEENAfxXkdDE436HgBgr74NVgsRERGRwCCPfNesPsfm8yqa+t+N8mbX367pgVT36zmelxve8xwzzepzPN8sH/tAxV09TGE2EgYAhCNzmLXuph7u6jcY41AGIiKiSccgj3y3v7cHnJjCFACgieY+TH/7ZQ97dRXPRgkex8j+3h5Em9Tx5rYepubPYWVlBecWGeI54bZ+gzAOZSAiIpp0DPLIZyKoC4dP6H/vY8+nJ7qItIKVFfFakuIIA8BeHY1JiPKIiIiIiHzCxdDJJw2UN1XUrZutIhJW3La6NMrYVOuISCsw/9dm9TmeVfZ6tgNNNKpb2KrU9RaDMMKRBZxdnO1tTWw2UN3aQr3eaV0IhyNYOLuI2d7EIt96vSdw7S2DA/pxDRKOL+HcvN4majrehWYZL4zjC0cQP7sIPZmJi3pwxVm+orxAfOksphqm9NbyuqwH22ut73Ul0u7Hl3BuHqiWX6Cij+MLR+I4uzhvqQtnx+aJfq0Z7w+EEYmfxWLPiWuiUX6BrSHXZHD1C8f1EGwZiIiIyCu25NHEaZSfQW0/nGJA184mqi9UVEwP0wCwt1eH+sw6ZqjZydcS4B2sMPa3nuOZ+fj26qj0lNdNPbjjLt891F9Y0vcpb6D2GihvPjMFWMBevYJnllls3B2bC80qnj8T11rHHuqVF6h2ZdxE9fkzqLbX5HNLWgRWv+7qIZgyEBERkXdsySOfiZYTGC1bzSqeP6vghJeWLoNNS16zUcYLtY49RCCtLHYm3TBaDCISltqtDqJlRK1bW/2aqJa3gLkFzLebSPRgrm5pnTPyDcchnZ1vt6g0G2U8s2lldKtR3oRatxyLhdGSBwDhiKS3qgwpr6N6cMFFvq7Kq3NSD930Vr0hLXmiDSmMuHRWnOtmA+VnKurm68fFsbkjArfKnrkexPZGdQvN2U6LV7vOuq6zThnMLZaB1a+LegisDERERDQStuSRv5pN7COMzpC8PeyZ/x5BXe3MrvlMrWMPYUSk7gfFxnYdQARSV7eyKcwuLiACoL5tbluYwvzioinA09POWX/UaKK6ped7rhPgARi9C58XEQnn2sfXKe9+s9PG4q4enPOUr4PyBi8CaeVc51xPzcJ6mj0dmxPNBup71nqAyHve3M3WWBLCep1NYXbxLOJhAHZLRfhcv57qwecyEBER0WgY5JEvjDXcNp9VsIc9VJ7pAZlaB9p/23U38yqC+NK5nrF4zX0AqEPtWXJBb83Zb3Z3N2s2UH6ul9149Rs7FA7Dh1h1ZJG5Ye0fHurBEW/5Di/vAbBZYmF2cQUr7dYkb8fmyL7oejm8HvRJimzKCkxh6oRIY42bhufrhrd68LcMRERENCoGeXRkRPTZNcXMmj6M+dHHSdWHDrLzb4ZQOn6aImoiIiIiOjAM8sgXxnplS/Gw3jVOBGRSBEA4jqWVFaysnLOZAdK9qdl5nBV917DV1TSot3a038/mda4zm2Jjq4I9AOG41J1esnbXPIFwGMDeHqyP66Jrm196W2m8cVcPzgWVr5Vf9eBGcMc2JZrgnHddtOuS2W5hO4EpL4XoMqh+g6uHboPKQERERKNikEe+2u9q8jIeTP03NS/GB+1ZZic8EQ4DexW8KDccP0SemDrRfmhtNqoob1kDN6OrnCmobDZQfb6Jfj073TohokjUG42ernBeeKkHJ4LK1+B3PbgR2LHNzunX6jM8r5qPq4lGtWy6fo1xgnWoZUu68gtU+nbldM5J/QZWDzonZSAiIqLRcHZN8lWjvAl1P46lc/OYMmYVPNFv5kOHbGbXNG/vXiOtM5OhnX4zA9rpej99llBr6nAkAtTro80eCtOxWPRbJ8+uHrrXGXNeD+44z9ddebv3WXWl7ZPGYLumXt/ZN82cH5trfcscRnzJ3MJtswagIRyBdK4z0VBg9euiHoIrAxEREY2CLXnkI2vLXcBj2WYX9BkHt0ytIVOYP7cEKRJGuDt1j6n5c1iKR0zpwghHJH3Mn8XUPM5JcdFtEwDCYUSkJZxb6EnpzewilqRIJ/+ROa8Hd4LKV+d7PbgR4LHNLmJJiiPSdWBiMfTuuGYWi0sS4pHudOGIhCVTgOeZo/oNsB7gtAxEREQ0CrbkERERERERTRC25BEREREREU0QBnlEREREREQThEEeERERERHRBGGQR0RERERENEEY5BEREREREU0QBnlEREREREQThEEeERERERHRBGGQR0SeaDkZoVAIcrpo3UW+KiItp2Ffy4P2ERER0XHFII+IumjFNGQ5hFCo8+qN4zQUNlQAgKo87RNkFJE25REKhRDqzej4Kqb71K2ZhpychKIC0Kz79G2qgmSIgR4RERF1MMijiaTlZMiH/OA7DmVwS8vJiCUVqCJ+GyCK5KoEAJBSy0hYd5MviukYMqqEbC2PRNS6F0A0gXwtCwkKkoOjRSIiIjpGGOTRRPpuS8XQOCVg41AGd4zWOQnZQg2tVqv9yttEcdH1ElqtFkp2OwEACeTbeRSQsu6mwYppJBVAyj7Eul2AZ4iu42FWApTkkFZBIiIiOi4Y5BGR7jtsqQBSn2LdttmIDo6G3E0FkLJ4ODDCE6LrnyIFQLmZs+3VSURERMcLgzzyn1ZELi0m5RAvGemc3aOnhmJahmwasyXLaRQtScUEHzJymoZiLt1JL6fRla0+xikUCiGpAICCpGVMmNxTDkueIRlyutjzoBxsGY6SIMfZOTsX7ojyijrXuq5LOW0XELkog36dD7t+BT1f81hHcYHYK95CRgWk1SSGh3gAkMDVrASoGdzy63QQERHRkcUgj/yl5SDHksgo5o6KKpTMWncwBA05OYak0t2lUVUVJGOyJS0AqNhYiyGZUTrpVQWZ2Ghj3oppS55QoSpJxGS7ACCYMhwqLWcKUpIQcWmyO4izrQv/uTsXLm0VkA7Fuq5LVckgZglQnZdBQ25NXOe916/1etA6+Trsv1t8qgCQsJp0FuIBQDS5CgmA8vTIXo1ERETkEwZ55CMNubUMVABSqoBaezxWDYVsvDtlbg0ZFYCURaFmSpeSAKjI2DRHqKo53xoKKQBQ0H6mTeTbY8jEvhQKpnFlrVYLJXPXN33ME6xlTfVvEfG9DC4U05YWNOurJxAJQkDj7DycCzdUJQPFPNawppfdPDOo2zLEU5axizbXA0SrXFKxXust1ERiGxpqFQDSKlzEeEA0iVUJQKV2ANcBERERjTMGeeQfrYANVTwkl/IJUzezKBLredPkEcYEHykUSuumWQOjSOQfIiuaI3pbx7ryjSKxLB6SKzVvj7SitSSFgrWseX18k12LiM9lOHTRdZSsQVuq0BWUtkrrDrsMeufpXLiSQqFV6ow1jCagn7o2d2WIYj2ft4xd7FwPHfrYup5rHQPqVB8bGY8NSGMnilgcgLqF76y7iIiI6FhhkEf++W4LKoDUcr/ZFg3GBB92U+/rD6qowBo3Dc/XDb21xGbMXLvbok2LiL9lcCeRNwVedq8DCMaC4e1cuGJzrYn6zOvbPZRBKyItm8eeDhhnJy3gtHUbERERUUAY5JFvNPGUTDT59LGnytBBdvoPGkREREQHiEEe+SYqmuCcd12065LZblGJIzZys1Rva2CH3mIoZU3jr4JoGRtUBnfGY0xeEA7qXAzirgzFW/rY06x5/F4LrZ5xdqexINl3oRTdQ+3o/8facjiUMZaPrYZERETHHYM88k9iGSkAaiYGOWeedl5MH9+ZMdMYD6Ug2TU9vYZiWp+QxaZ7nRunxZM1Ngp9pr830qgZrKWL0PolGoGTMpDg7Vx0lkSQfVjGwUsZ4rHT7cBPK+aQvmkN3IzuxwpuGjeAVkRONpbYsGOMrdtAwWE5ANOYWNdj+YiIiGjSMMgjHyWQ11sy1EwSsXYrUwzJTHdXzkTemN3Qkk5RAUlMfjEKo1Wxuxzda9RF18UkL6qSRCzW2zI2atzgpAxujMWYPNM6gHZLLnQdm4u0ns6FVsCGviSCatsq7I6bMogAHlCSsfb+WDKDrpVDdImrWUj6jx+hUAihWFKsgZdKQeTSS0zgomLDRZSnFTYcjoklIiKiSccgj/yVyKNWyCIlmR9fJaSyD02za0IEhLUCsqnudFKqgFrJmAxjBIk8aoUUuorRI4r1kpgif2AyrxyVgQQP5yKaxKp+/UgjtvwKzssQXS+hljUHafq1WxABXZfoOkqFbOc6kCSkCjWUri5YEpokroqAM3PLYfCqz1grZXF19IogIiKiI+6tV69e/cm60SoSiVg3ERFRkIpphJIKpGxt6NqKWk5GLKMiVWhhxEZwIiIimgBsySMiGkeJPAopQM2smcaz2tByWMuoQKrAAI+IiIgABnlERONLjF1VkYmlUbQL9LQi0rEMVCmLGiM8IiIi0jHIIyIaWwnkWwWkJMB2Vp0oxERFBzHpDhERER0ZHJNHREREREQ0QdiSR0RERERENEEY5BEREREREU0QBnlEREREREQThEEeEYBm9Tk2NzfxvNyw7iIiIiIiOlIY5BGhiUZ9DwCwV9/GJIR5RtDKmJWIiIjo+GGQR75rVp9j83kVTf3vRnmz62+3jICl+/Ucz8tVNLxm2mUKs5EwACAcmcOsdbdHzepzPN8s+x40BpXvJBuHOhuHMhAREdHxwCCPfLe/twecmMIUAKCJ5j5Mf/tlD3v1CtRnz1H1IdCbmj+HlZUVnFv0K8QT9SDaB/0VVL6TbBzqbBzKQERERMcDgzzymQjqwuET+t/72PPpyTYirWBlRX8tLUGKhAHsofLCeyshEREREdGk4WLo5JMGypsq6tbNVhEJKy5by5rV53hW2UNEWkH3fzXeMwJpZVHvZim27ceXcG4eqJZfoKKPtwtH4ji7OG9qUbQpc5/yiTIA8aWzmGpsYatSF60y4QjiZxcxb2TaKGNTHVwL4fgSzrX/g0Mu8zXX2UKzjBf9ytvWRKNqOi6EEY4s4Ozi7OgtsM0Gqltb7fMAhBGJn8ViTyGaaJRfYKveafEKhyNYOLuIWVPSYM+Fs3oItgxEREREo2FLHk2mvQbKm89MgQWwV6/g2Ugzkeyh/uIZ1HYAAGCvjsqzcR1nFcb+1nM8c1DeRtlyXNjDXl3FsxHGUgIAmlU8f6Z2nQdgD/XKC0s32yaqz59BNQV4ALC3V+/TJTeYc+GuHoIpAxEREdGo2JJHPhOtYzBa3ZpVPH9WwYmeVjjnbFvymk1Ut56hUre2vplb58KIS2cxPzsFNBsoP7O2+pnp/29gS57ethOR9JadpggK6qIrqfW/NcqbUOv93s87J/m6Kq/R2hSRsNRusRKtamrdrgXVKRG4VfbMZRDbG9UtNGc7LV7t8objkM7O6y13nTKYz7GrY9M5qTM39RBYGYiIiIh8wJY88leziX2E0RmSt4c9898jqKum2TWf6QFeOALJ+jQNAIhAWjknAjwAmJrFnB+/VUQknGsHAFOY1TPdb/a284wFB+VtbNdFfXV1SZzC7OICIgDq2x7bpZoN1PesZYDIe97cZdRYwiIC6ZwR4OnpFs8iHgZgt7SFg2Nzw1M9+FwGIiIiIj8wyCNftJc5eFbBHvZQeaYHY2pdTI7yTCx70NvtzqNwGJG4hKVzfVpFbJZCmF1cwcqIrSiRuVH+98EbXl599lPUofYsU6G3iO43bboqOrAvul4OL4M+OY/NOQOmMHVCpLHGTcPzdcNbPfhbBiIiIiJ/MMijI6Nrds1z57A478OkIBSYpoiaiIiIiOiAMcgjXxjrzC3Fw6LLmx6MSREA4TiWVlawsnLOZlbHSdfbAuUPv/LVW8ra58jmdc48I6lzU6IJznnXRbsume0WthOY8lKILoPqLLh66DaoDERERET+YJBHvtrvWhTPeEA/nk6ExTp+9Uajp5vfKPzO90Q4DOxV8KLc8DcAmZ1DBMBe5RmeV81lbaJRLZu67hrjJetQy5Z05Reo9O3K6ZyTOgusHnROykBERETkh9Df/d3f/SfrRqtwOGzdRGSr2djC9lv/G/4qOo2f4I/Y/RcNOyei+Os57zOv/HH3X6Dt/IhwZAHDs2misbWN/XAEC8MSN8rY/K8vsLW1ha2tbewDwP62/vcWGn8WQXT6J8CgMjQb2Nrex5/P/LSd1vCTH3extb2PH3e2oel5WvP1wkm+bsr7k+kZ/FlDQ31nG5rWyc94NcNO6t3OCcyFmzZl1bC98xZmfhqFUQ0n5sJobm1jf9+Sbv9HMbnOL/4/MIrg5tgMTurMTT0EVQYiIiIiP7Alj3xkbbnTJ9Q4rmYXsSRF4PtvJL7nO4X5c0uQImH4lqVhdhFLUhyRrsKKxdC7u+7OYnFJQjzSnS4cGTC5jhuO6izAeoDTMhARERGNjuvkERERERERTRC25BEREREREU0QBnlEREREREQThEEeERERERHRBGGQR0RERERENEE48QrRpPshh/RvM1C2rTvckCAtfoqHHyUQte4iIiIiorHCII9okn2bRuhLxbrVu7ksap+tM9AjIiIiGmMM8ogmlobc5zFktgEsFlBLnrYmcO77Ata+zEAFkPq4hfy71gRERERENC44Jo+OlN3cNdwIXUA+/dK66xAUkZbTKFo3j4sfCtjYBoAUCh8lEH076v317joeLksAAOUPB3/E2tcyQhdDkB8c/HsTdRvz+56IiIhBHh0tb1DdeA0A2FHKqFp3HygNOTkJRQWgWfcBxQchhC6GENKDEuvfbT/kIF8MIf1t92Yy01D4RxUAoJaf9nm4LiJ9Ua9j42WtazraArxXrPen9e8uGgBVQTLEQI+IiMYXgzw6Qk5ifvUUAGAmtYh5626PdnPXkA/ddRU0FtMxZFQJ2VoeCZsBaqffEa1eVtI7li6TbyexOgcov8vZxYoTyCYYa79k5H6wpgeAKJJ/I+pTWlxGwrp73PxQRO6BDNl0bPKDHIq2xxYM7WsZ8sXDDUJ8L0OA94rj+xUAognka1lIUJBM+3Z0REREvmKQR0fK9PoXuN56jHT+jHWXZ7tbr7Fj3ThIMY2kAkjZh1i3CfDMjIfEfg+RQBTrv0oB2xsoHGAQ4IjechJ6UPT9odqt6PsltO63UPqoX4iXQP5+C637LbTuF5Cy7j4o36YhX08iU1Yh2h4FtZxBsnBwAcF333e//2HwvwzB3yvD71dddB0PsxKgJME4j4iIxhGDPCJXNORuKoCUxcNhEZ5T7y4jBRWZAwwChvohB/m6mGgFjZp17+gWC3pAZn6VsP62NeFRUkT6SwUqAGmxgNqNzrHVPs4i9Y41Pbk2RvdKdP1TpAAoN/1vWSQiIhoVgzzyjZgU5RpKGrCbu4t86AJuhC7ghnwXpZ6noJd4ErqAfO4NgDcopcWEKmJSla+wa5PW2H8jdAE3+ky80inDG1QHlaF4t53XhgIAJWxY3kOUzaJ4CxkVkFaTA5cRiL4Tt/07/o7d/0rg6rIE9B1vJojJR2TkftBQ/Drd6Q74ebpPN0ePzAHeoS6ZYNO1026MlCeWOrwoQx6xxVL7+iYUiAC29FECUVPAGn13Hfn3ra2QGorWbp2fp3u6dTo+79+m2/kkywCgIGmpP/lr6xE6q4dgyyAUH4j3GDzmLph7xd39akjgalYC1AxuDSoMERHRIWCQR76rrF3AvUyp0wVSLeGbmAj+emy9xJPQZXyjiAlVAGBHeYR7fYI4Z16jsnYZGz1lcDfuzk7xqQJAwmpy0MMfgHfzonvh+3o6/e9+Sw9Ef7YKCQpu9nkA7lCx8dsYkk9FixEAYFtB5rqTsU8atG97H+C7jE2AF6ziA0sdQoVaTiL2uddWGWNyGAnZpDWYsyOWt0hau3VuK0hetxubOMp5789dPQRTBqGIp2UVgDp0zF0g94rL+9UQTa5CAqA87cmRiIjoUDHII5+9xo4KzKSu4FLrMa637mA1e0oEXoXelrEd5REqOIX3CndwvfUY12tXEAeArtkzz+B867HY39L3D9FThhQAlLBlPIslPtHze6zvk7Hafg/xSq+f7MoT0FCrAJBWMSzGc+3tdXy6CKj/WBj4gAsA6rbeHfB+C637NRQWAUDB04EtIID29RpiXyYR+9zmIRcHHOCVk12tO6KVxfpwH9A4u2/TopWpXYdGPUrAdga3htSjve+wtQ1gbhVJB11Ota/XxPqFc1kU2t069TL06Y449LzrgUnrfkvfl0LB0iW2HcTAWz34Xoa2BJYXJQASUr8a3Ep+EPeKY9EkViUAldrQshARER0kBnnku5nsHaTzZzANiBkx11cQB7Cz8dLSDRN6cPUF5IQeUEXPYMGPp/nUle4yLMsAgJ1ab6Dp3HfYUgHEY4MfQj1K/CzV9+G6i9EdEAAQFf8PQOX7wY+Z0ffFGCJsK0haA72DDPAOWfEPSmftwPbWKBIf6WOsAl8H0Gj1S6Hw2ToS7aAwisRHD5Gdg313RI/nvR9P9eBzGcwSH5XQul9C/t3hV17Q94pzUcTiANQtfGfdRUREdIgY5JHvZmLWFrBZzPSbrM5mKYT5/GNcb33Ss92N+LJ/s28emHevIjvX5+HaJPUzJ90B7SSQv6G3iJkDvcMI8OwmXjmI94WGWgO2Y8VCF5NiTF0j6FYZvdXPdjmIKGKzAFBBzdJl0/t5t+OtHvwtwwgCv1eIiIiONgZ5RGNDXw+ufNNmTJZP3rYGevLBB3gT6TQW5hDo9P5kdgD3ChER0RHGII+Cp71ERQUQP6l3nxxHdexamy16nMZCwONvRJdKFRt/COodrIGePvHHsQnw9JayuaxpHJofLYpGC5yLc2fXJbPdwhZHzMHYvsF6WwM7gqoHq0FlGM2B3CtDGeN0F2CzbDoREdGhYZBHATCNe9Ne4snaI+yMcRfK6QVjYhi7MYNmxvibDRQCe65MYHkRUJ/esgkAfGQO9I5NgCecfkdMLLL2oAjNxwAkkcxCAqA+jfUsQ6B9m0P66/asP1jWJwBJdqXTUHygT8hi25XTObGYt4qNP/SfTTWoejA4KYOZsyUUzA7oXhlEK2AjwHG6REREXjHII99Vkpc7683FbotWvNQVnPf61Gpa0+5G6DYqAKDcHryenQvTsQgAYCdzG/eGrJOXWE6JB9fgojw9WPBxBsB+3tZnrxzXAM+05lp7nJhpVs6u9dZcpI2+LyY3UctJxK5bx6OFXAQZFm+v4+GyGHyqlpOImfKMfZmB8n0naeIjPcDuSieWVMCcmAxlFMY6b+rT7nIcSD3onJShw/kSCmYHdq/0oRU2oAJILY92voiIiPzGII+CJZ1CPHsFl/Lj2YoHiOUULhXk/pPDmCWuQqx/HGDrwdtJrM7B1cMuuRHF+mdiqQAnp9yN6Psl1D7OIjVnzlmCtJhFoWv9PNGSml20piug9ll+pFY8QCxlUPs4BWnOusMsuHoAnJbB4GIJBbNDvVc0FDZUQMri6sgnjIiIyF9vvXr16k/WjVaRiGjpIBpkN3cN9zKvES889t5qdxQU0wglFUjZGkrrjh9H3fk2jdCXFWRvlLDudWxWe9bMFAr3Rw8ctK9lxJ6qYmbMEVuaiHzjx73igZaTEcuoSBVayPN2ICKiMcOWPCK3EnkUUoCaWUMuqOaDd5eR6rMotmN6KwegIPl5DsUfNGheX9+msfZUBTgtPY0bP+4Vt7Qc1jIqkCowwCMiorHEljzyzbFpyQMAFJEOJaEghUItj0RADXojM6+B5we24tFxpxWRjiWhSFnUSmM6npWIiI49Bnnkm+MV5EEEevJTLJdG7woZqB+KSP/2ppiwZgTxXz1E/l0+0tJxd0TueyIiOtYY5BEREREREU0QjskjIiIiIiKaIAzyiIiIiIiIJgiDPCIiIiIiognCII+OlN3cNdwIXUA+/dK66xAUkZbTwS2KfuywPomIiIj8wCCPjpA3qG68BgDsKGVUrbsPlIacnISiAghqrbzjRgOgKkiGGOgRERERjYJBHh0hJzG/egoAMJNaxLx1t0e7uWvIh+66ChqL6RgyqoTsOK+RB0DLyZAPOWhyXIZoAvlaFhIUJNNDUxMRERFRHwzy6EiZXv8C11uPkc6fse7ybHfrNXasGwcpppFUACn7EOtjHOABwHdbqn8LoXvkqgzRdTzMSoCSBOM8IiIiIm8Y5BG5oiF3UwGkLB6Oe4R3REXXP0UKgHIzx56wRERERB4wyCPfiElRrqGkAbu5u8iHLuBG6AJuyHdR6nlaf4knoQvI594AeINSWkyoIiZV+Qq7NmmN/TdCF3Cjz8QrnTK8QXVQGYp323ltKABQwoblPUTZLIq3kFEBaTWJoSGeVkQuLSMUCukvGelcT0UA0FBMy5Db6UKQ5TSKlqRaTkYoJCOnaSjm0p30chpd2RbT7XySCgAoSJryDoVCkHvKYckzJENOF3uCrGDLYEjgalYC1AxusTWPiIiIyDUGeeS7ytoF3MuUOl0g1RK+iYngr8fWSzwJXcY3iphQBQB2lEe41yeIc+Y1KmuXsdFTBnfj7uwUnyoAJKwmh4R4Wg5yLImMYu6oqELJrHUHQ9CQk2NIKt1dGlVVQTImW9ICgIqNtRiSGaWTXlWQiTkY8zZAMW3JEypUJYmYbNeaFkwZzKLJVUgAlKd+5UhERER0fDDII5+9xo4KzKSu4FLrMa637mA1e0oEXoXelrEd5REqOIX3CndwvfUY12tXEAeArtkzz+B867HY39L3D9FThhQAlLBlxAyJT/T8Huv7ZKy230O80usnu/IENNQqAKRVDI7xNOTWMlABSKkCaq0WWq0WWq0aCtnu0mu5NWRUAFIWhZopXUoCoCJj05SlquZ8ayikAEBBOx5K5PV8Wvq+FArtMohXydzVVB9jCGtZU/1b03wvg1U0iVUJQKVmE2QSERER0SAM8sh3M9k7SOfPYBoQM2KuryAOYGfjpaUbJvTg6gvICT2gip7BQsqaxoPUle4yLMsAgJ1ab6Dp3HfYUgHEY4O7amoFbKgiaCrlE6a0USTW86bJWjQUREIUSuumWTqjSOQfIiuasnpbx7ryjSKxLCqsUvMWDonWyRQK1rLm9bFxdq1pPpehVxSxOAB1C99ZdxERERHRQAzyyHczMWsL2CxmJMsmg81SCPP5x7je+qRnuxvxZf9m33Ttuy2oAFLLCeseCz1oTC2jN6Ue5KACa9w0PF839NZJmzFzoVASCuxb0/wtAxERERH5iUEekc80ETURERERER0KBnkUPO0lKiqA+Em9++Q4qmPX2lzV4zQWHIwTi4omOOddF+26ZLZb2OKIDewb6kRva2CH3mIoZU3j8Syv0vrg7qmODCqDHWP84wJOW3cRERER0UAM8igApnFv2ks8WXuEncPuQjnA9IIxMYzdmEEzY5zYBgqDApbEMlIA1EwMcs68DIFYdqAzY2YCYiibgmTXcgUaiml9QhbbrpzOnV4QE7hsFHqXQzCcXhATrKyli9D6JRqBkzL0MMY1Dhv/SEREREQ9GOSR7yrJy5315mK3RSte6grOe41WTGva3QjdhhhCdnvwenYuTMciAICdzG3cG7JOnphgRMXG4CgPeTGlJNRMErH2GLcYkpnurpyJfAEizrOkU1RAEpOhjMJoVewuR/caddF1McmLqiQRi1nH5YWQ7m1mdMVJGay0wobDcY1EREREZMUgj4IlnUI8ewWX8uPZigeI5RQuFeT+k8OYJa6KgChzy6aLpUkij1ohi5RkzlRCKvvQNLsmREBYKyCb6k4npQqolfIjteIBRjlS6CpGjyjWS2LJhIHJvHJUBjN91lEpi6sjVwARERHR8fPWq1ev/mTdaBWJiJYOokF2c9dwL/Ma8cJj7612R0ExjVBSgZStDV7rjTzRcjJiGRWpQgsjNmQSERERHUtsySNyK5FHIQWomTXT+DryhZbDWkYFUgUGeEREREQeMcgj8kCMpVORiaVRZKDnD62IdCwDVcqixgiPiIiIyDMGeUSeJJBvFZCSAE7/6JMoxGQzvizZQERERHR8cUweERERERHRBGFLHhERERER0QRhkEdERERERDRBGOQRERERERFNEAZ5REREREREE4RBHhERERER0QRhkEdERERERDRBGOQRERERERFNEAZ5REREREREE4RBHhERERER0QRhkEdERERERDRBGOQRERERERFNEAZ5REREREREE4RBHhERERER0QRhkEdERERERDRBGOQRERERERFNEAZ5REREREREE4RBHhERERER0QRhkEdERERERDRBGOQRERERERFNEAZ5REREREREE4RBHhERERER0QRhkEdERERERDRBGOQRERERERFNEAZ5REREREREE4RBHhERERER0QRhkEdERERERDRBGORRIHZz13AjdAH59EvrLiIiIiIiChCDPArAG1Q3XgMAdpQyqtbdAICXeBK6gBvmFwPC8VK8ixuhC3hStO4gIiIionH21qtXr/5k3WgViUSsm2hM7Ra/wj/c/D0q8RVcz5+x7vbgJZ6EbqNi3QwAOIX3al9Ajlq3i5a8e5nXmEldQdq2HDb5pq6MWOY3KMmX8Y1ql5e+Dx/iUukDTJv2uLGbu4bNTAS/bH2CeevONptja+tfZ2OneBc3kiXEC49xPmFsHHRssKQlIiIiosPAlryJ8gbVm49QUUUr2mGaXv8C11uP+wR4AHAG51uPcb31GNdbVxC37h6VsomSZt04ut2t19ixbiQiIiIiGiMM8siZ1BU9IDO/xrRFSpIRl16jUnhj3XOwjlKduWV7bGzFIyIiIhoHxzDIe4Nq7i7yprFg+fRXqJpbfbSvOvst48SMCUVuhK71thRpL/FENvaLNPn0S+xakjkqA4BqWt+Xe4Pdojn9NTzJdQKYTpn0rooAoNzuGu+WN6UPTpDj7Kx11q9uASCChdVT2Mk86TMe0OwNqulr3edCvtt9LvSxaTdCF7ChAEAJG5bjHK1+HZTBdJ57xsjp5TOXQaS9hpJmqTf5bu91C3TqVzYdV7JkTeSSuB5Eud6glO7cG/n0V5Zz5yYtHNeZ+3yFYlpGKCQjba1rIiIioiPgmAV5YlzWRqbU1eVuR3mEjdjdTkAQ/QAr2VPi38rtzkO19hU2M6Ir5Ez2190tMsW7uBG7bekq+Ro7ym38Q9eDosMymPdlLuNe0pz+NSqZyyMGFkdLNW2tM1G392T7B/Xp5M8xgxL+fmAd6edC6e6CuaOWsBGzCeIDEWQZXqOyZqk3tYRveq6zN536NX4k8NPWSzwJXcY3Sufe2FEe4Z7dDwCO0nqoM0f5Gop4qqgAVCg3c7DLjoiIiGicHasgbzf3G72l6xTeK9wRXcxqxniwEjZMD3zT619gNSX+XUmKh+LqrUfioTJ1Ben1k+20wEs8MVo9JBmrNaP72h1cKsiYMaV0U4Yu0od6vnfwniQ2GS1Vxvg38z5rd7ru8npgaRkUrULWACugcXbFu6IFLXUFl9r538Fq6hSgPrIE0broB/hlCtjZ6NfaZzoX7bo15YvX+OaWfi4Sn7TrUVwTMlYt3RRt69dBnTkug0c7KjDTrrc7evlL2DLXWfGJqN+uMjzGpYJsSmRhd2wha/Ao7CiPULG73m1mXnWS1kudOcm3I4HllARAQurTJCahdy0REREdL8coyOtM6z+T/TXkhP5QHj2DXxitdpU3XQ/g83lT8CVf07vqyVi1TCaym9vUZxs8hfcefoL59lPhSUwnPoHcHqfkvgyAHjiWPtDzPQn5U+Phu47dY9DMUH1aatd7Z1bMk5jPryAOoPK096EeAOaX5f5BYPtcmOsWer6/FsGybQDgpwMogz67qai3k6JOAOzUjBbONyjd1Ou3qwzwPANpLxmrrS+6rvcF/QeUXsPSeq2zYfl2S+RLaLVKyCcY4hEREdHRc4yCvEa7K9pO5nJXC8Q9vQsm1Hpvy5TRmqF3w4wXeqfO393S/7/0866H5F5eygAAke4H7tMRvXXwNXa+M+8IkN1EGyMsReDcG+xWYDsO7oYxlb9dYAwAifN4T+oXBOrnIrXYcz6Bk5iOY/QgemidBV+G+HK/2U0tJMs1NozdsfVbVsLm+ObzfdIPTeuxzmzS9y0DERER0RF3jII8f3RaQGj86a2eAS2nMBk6PzwQERER0WQ4RkHeLGb08WozWX1cTs/L8qu+9hXy+li7eErv5pb5TU/AML2gd7VUf28zu5+ZhzLY2C38Xp9w4hRmTlv3Thq9dUb60DQez/Ia1KKYWEQcr1EpNKx7BNuufUbrYQTTti2zNi1Fo/BUho7q07p1kwv6NWnTgiy6yY6pEeuMiIiIaJIdoyDvJOZXRTC2k/kNnhSHtci9QWmtM9HK+fwn+qQVr/HNWvfkGWImR2OfeRp3sfRBZ7kDt2XotVvszPDZ2z3U6K6mPwT7GYgcoukFMcHKZvqlh+BKjHfcyRjjJjvbxZgsMdlN53y+QTWtT+xh08VPBPSvUSn0n9DFOXdlmI5FAACVp8b1J5YR2DDNGOmecc2YZiLVXqIkG8tFjBt3deYVl1AgIiKio+ytV69e/cm60SoSEQ+XR99LPJFvo9Kne9pM9k57lsRq2njIlbFqtK5pXyEf6wR+100TsOzmrnXG1VmY8/VWBjun8F7NZmHt4l3b9c26y+DGSzwJ3UbFcry2+ry3oasMbtLqU+a31wC0iBeMRbj1dPgQl8yte+bzJpn36cfWyapDkrFasmlV7VPunnPstM5claFPWukUoL7uKoNxPXbqRqeXv6u85voxmUnJgFLCTFcefcqg634/D/XgJq11MwbUmaN8DUWkQ0koACBlUSutc4ZNIiIiOlKOUUsexEQqJTHVunlZgx7GlP0AZrLnOw+M/dbP05cxuFT4EHFJ3w+I7pSpK1jpCq4clqEvkeellk2ABzHd/6Ws3O4WOhlOQh6lzvTlFHqdwfnaFbyX6j1nl+wCPOj1W/Czft2U4QzO1z5EvP3epxDPXsGlkphl1LPoB0gXPuwck3QK8cIdpK+O6487burMCy6hQEREREfbMWvJO1raLXldrU9ERERERET9HbOWPCIiIiIiosnGII+IiIiIiGiCMMgjIiIiIiKaIByTR0RERERENEHYkkdERERERDRBGOTR5Po2DfnzEEKfy8j9YN05jIbcAxmhiyHID4pwvQY7EREREdEhYXdNmlBFpC/qC1oDYs2zj0vIv9uVqA8Nuc9jyGx3tkjLNZTe54ppRERERDT+2JJ3zO3mruFG6ALy6ZfWXYegiLSchmmNee9+qKHStUGF8qWM9LddG230Bnh0tGhfd1pgiYhoPPGzmsgrZ8/LDPKOtTeobrwGAOwoZVStuw+UhpychKICdn0jiw9CCF0MIaR/GVj/7vH2Oj5dtG4cFuj1C/AkrP6MrXhHg4bCP6oAALX8tM8HYBHpi/r1Y7z6XUdkSzO6QpvqsP99NUa+TY9pWXlNumUECId6Ln/IQb4Ygvy1zZfWARmLerBw9vnAz+pjZ2w/f50L8n6zPtda/+6iAVAVJEODAz0GecfaScyvngIAzKQWMW/d7dFu7hryobuugsZiOoaMKiFbyyNhE0+dfkeybgIASO+ctm5qS3xUQ8FxoNc/wMveKGH9bet2t2y+rAZ+AdLgOus3zjKK5N+Ia0VaXEbCuvuY0L6WIV8c/OHvlfa1jNiXCtSee4XMjIcB63UrP8ihaHvtEnUL8j4OivPPB35W03g57PvN1XNuNIF8LQsJCpLp/iVmkHfMTa9/geutx0jnz1h3eba79Ro71o2DFNNIKoCUfYh1mwDPzLjY+90M3aIOA72gAzw6SNH3S2jdb6H0Ub/HhgTy91to3W+hdb+AlHX3BPjuexXiN3K/Gb++S8h+XNPrULycjXc97lSo5QyS160/Ukz+NUnuBXcfB8Xd5wM/q2mcjMv95vg5N7qOh1kJUJLoF+cxyKNDpiF3UwGkLB4Oi/A8GRboFQ82wFssdH3xDfoCJJ1tnQVwbsiB77C1DWDxU6y/G8T9OnlSH5uu2xs1FBYlACoyv83Z9UwnOsL4+UB0kKLrnyIFQLlp/33CIG+MiUlRrqGkAbu5u8iHLuBG6AJuyHdR6jmbL/EkdAH53BsAb1BKiwlVxKQqX2HXJq2x/0boAm70mXilU4Y3qA4qQ/FuO68NBQBK2LC8hyibRfEWMiogrSYx6Csh+k7c9u/4O4P+l2FQoJc8uADPMdFNUYzz6CzlELoYgvzAeiO7SQsAGooPZMimLmTy52mb7mNu8xWKD2SELtp1hw2aTddOu37snmgofp021Zk88rIaoiufjNwPlrw/T/fphurgvOnjHUIXQ0iWAUBB0lInBzd2yEF5TV0ae64X/VjM5fVUZ19bxgZ92Zlv91C8HUXiI/GljO0tfGfd75iLa/KHInIOzoVgzVfc787SDiiDW3qZO9eujPSAa1dzcz04La/LMpiZx9I4+x8mI9zHgdSD7yb8s9rJ/aaP5Ux/a3xnhhD6PAfNsnRTN/+PDXBYXi/1EMDnb6cMDq91J8cW+P3mnLfn3ASuZiVAzeCW9ZJhkHc0VNYu4F6m1OkCqZbwTUwEfz22XuJJ6DK+UcSEKgCwozzCvT5BnDOvUVm7jI2eMrgbd2en+FQRE5skB13EAN7Ni24dxjIG+t/OW8D6BXpWhx3gmXxfQPpiDJlypwOBWs4g1vPh7zSt6JaaLHd3SVC3FZvuYzpH+RqKeFpWRfD8u/6B4FFTfBBD8qliqjMVajmJ2OejHqOKjd9a8t5WkLluHRPg4bz5SX8gEV94+rIk5WTXl6B4QDEEWV7nddY+bz0/4hx9zq9JDbnfJpGxPRfWOrPLV9zvyYI1pV3afmVw6Ycc5OuizB0qlKdrNteOhMrvZMSGXg8uy+uqDN20r2XxsLhYQOujxMAfL/0TUD044frzITi+H1ub888dN/db5XcyksY1tr2BWw/W2tecWr7Zda0Fc2zuyuumHoL8/N34bcjmWrd+t7g9Njec32+ueHzOjSZXIQFQnva+O4O8sfcaOyowk7qCS63HuN66g9XsKRF4FXpbxnaUR6jgFN4r3MH11mNcr11BHAC6Zs88g/Otx2J/S98/RE8ZUgBQwpZxTSU+0fN7rO+Tsdp+D/FKr5/syhPQUKsAkFYxLMbzx7BA7wACPOuX38UQQn0G+qrlDBTz2IYb+pgEm5nInKTVvl4TrZZzWRRuGF3ITN3HbB7knOTbkcDyogRAQupXg1tmXbGrs54vtoDGbnybbj+w1dr563W2ncEtawuUS+o2ILXzNq5NBU9N+To+b/oXQut+S88nhUJXF1fTl0eAHJfXIyd1hm9vifPWVYYWah/7dmV484OG3AP9QdjrZBNur8nZlGV8VJ86QxFPywAWs6Z8W6h9nEXqHXM6D2VwTEPutxmoMJ9jPe9lu28qFeq26uB6cFNet2Xo0L6WEXsqytPqO85sCE/3cRD1EJTJ/awG3NxvEOdsuYbWxykAKpSyitTHLdSWxWfl1vd6wiCPzUV54bQeAv38VXvLoNfXxh8s4a6TYwvyfjso0SRWJQCVWk/AzyDvCJjJ3kE6fwbTgJgRc30FcQA7Gy8t3TChB1dfQE7oAVX0DBb8uK9SV7rLsCwDAHZqvYGmc99hSwUQj/kXEDhQa1i3dLQ/VMdCCoX7pc7YhrcTWO4boA5LawyIT6Hw2ToS7UA2isRHD5Gd6xe4Dcu3W+KjElr3S8hPyHiM4h8UUQddv8h3utwpf+itMVcWCyi1844i8TNxs1a+Nz6qvZ43H729jlL7C09/KLOOk/xsXT+GAyivgzrL/U4/b11lwIF+zhiUL00/TlyPIVMGMCeuKS/cXZNRrH+Ut4yP6tSZrfIGCt92HhWi764j/353Wd2VwYUfCtjYtp5jiLzfz9v/ADf0enBZXi9lsAR4/ScSCZDf9eCUq8+H4ARybGYO6tf1/TaXxUNzADGXxdV3e7vtBXdsLssLJ/UQ/OevtFzrLsP7oh7UfyyYghwPx+bG0Ho4SFHE4gDU3iEADPKOgJmYtQVsFjP9Jt2xWQphPv8Y11uf9Gx3I77s3+ybh6ffLJoG66ybAbB++d1voXU/b/+Lvs0v/YmP+qQfmtYYEN+bDogiNgsAFdSsXZFs0vctQ1Ds6uwAHhoATf9BoLePfrtbUqP3lzM3Uj8bVosez9uhCb68w+tMN7cAm4mnD9echNRyAbXPvN4/Hq7JH4pIf25ZzsF2bEwC+Y9TkKAi82VMH4NmNx7PQxmc+n4Lqptz7City/J6KAP+cQ2xp2r7we8wDC+vy3o4UoI/tuH1q3N8vwHS33T3eLH+LQR8bC7KCzf1EODnb+8YtdNYmLNsgvtjc8NxPRwyBnl0TAwL8AwHEOgRUYD0QHNMdM2u+VkJ+ffNv8YHTB9bpmybR6UM8G4epfs10UVzToXyNIPkdbtJIIKhfV+xbjpwnsrwN5/qrdQ3+d1xnLm93w5bIOUdk8/fQI7t6GGQdxRpL1FRAcRP6t0nx1Edu0N/WjqNhT79iP3VL8CTkL1h9KU2m+BAz7arnPFLYRyxPl2Rjie95Wmue4zSwbcoej1vo7WYjcRTeTuKf/DwoN2m/6prM3ul6PZ0lLm7JosFfWzZsnksT0sfA9RPVHTR/KyF1v0asnPWSSDclcENo5uav12e3JXXWxlOY/2zggiMv7ROADEqv+5jd/VwtIzHsXm734YJ7tiCKe8hfP4aXaxnO0N/vB+bX/fbQTLmt+htPWWQdySYxr1pL/Fk7RF2xrgL5fSCMTGM3ZhBM6Mf8QYKbr5PXRkU4JWw/na/yVgmLdAzxtIpSHZNu6yh+ECfKMO2i507h7eEQjBOvyMGtq89KEI7lA9+b+dNLKKqYuMPPkyx7Yq78hoP1MofjIl0xNIL7RnnPDG6hSq4aUx9/UMRuc+NKbL7GTR9+fjwck3G3zndfvjRvs0h/Tubh60fckg/yKH4g/mKiSL5N5ZJIDyWwZF3l8XYmqcxyF9brp+vvU9R7qq8nsuQQP6zAlJQbWb688bv+9hVPRwx43Rsju43F4I+Nn/L6/Xz1w3T3fBDEWl9oiS7LpRujs3v+60j4O8WrYAN1X5+CwZ5R0Alebmz3lzstmjFS13B+d7r2RnTmnY3QrdRAQDl9uD17FyYjkUAADuZ27g3ZJ28xHJK3FSBRHnDAjzj7wMM9OxmirRbJywAiY+MmTGTiLXfW0x1P8pEEB2HuISCaa0bu2m8u9a5cZE2+r6YLEQtJxG7fnTOmxE8qU/N/6f/ej9+clVe/YEa5Yye1kjXb9CxM4lkFpL+oB66GELoulgPU1pMoW/OPxSw0Z6+3K4lMkABXZPioQVQvtTr4WIIsS8zUHo+E4VKOYPk9U7a0MWQGGuGFJZN03i7KYM7Ylwgeq7dGJJPvbfuuivvKGVIIH8jK8Y1jjqdegD3sbt6CIiLa91N2nE4Nrf3m1NBHVtQ5fX0+euCubyh60lR3sVC11IDXo7N7/utLeDvFq2wIYLc5d5nAQZ5R410CvHsFVzKj2crHgAg8QkuFeT+k8OYJa5CrON4y+cL32mAZxgc6Pnxq+zhSyB/o4DsovnESGIaYM8TQZgFtITCoYpi/TMxVbWTyzkYHs7bu3nUPk5BshuMHjg35RUPxal2OY2JSfQFw716ex2lj7Od45+TkPq4hlJywZLQ5O0kVvUySzato+PD+TUZfb+E2rL5wUo/Dx+Lh7Aub6/jYc81o6fvmWjJeRlcezevjwnsvn5Syw9tPredclneUcrw9jpKH6dEa/bnIwZ6vt/HLuvhSDn8Y3N1v7kSzLEFVl4vn79eGZNZWX7s9HRsvt9vukC/WzQUNlRAyuKqTcZvvXr16k/WjVaRiGiZoYO1m7uGe5nXiBcee2+1OwqKaYSSCqRsDaV1n0KDH3KQr4sm/I5+AZ6ZvoinpVuBtFyzWSuFiIiIiIJmLFOS+nj4AuHHhZaTEcuoSBVayNvECWzJo8OXyKOQAtTMGnIjtoq3vR2zLPLuJMDDgBY9IiIiIqIxoOWwllGBVME2wAODPBoXibw+YD2WRtGXQE90GUvNSZDmUig4CvAMeqC3LEGak5BiKx4RERERjQOtiHQsA1XKotYvwmOQR+MjgXyrgJQE+DaY6+0E8p+VUPosj4TjAM8QReL9EkqflZBngEdERERE4yAKQEqhUBq8fAbH5BEREREREU0QtuQRERERERFNEAZ5REREREREE4RBHhERERER0QRhkEfk0m7uGm6ELiCffmndRURERER06BjkEbnyBtWN1wCAHaWMqnU3EREREdEhY5A3YXaLX+GJfA03fGtleoknoQu40ef1pGhNf/Ts5q4hH7rrMGA7ifnVUwCAmdQi5q27iYiIiIgOGYO8ifIG1ZuPUFFFSxM5s7v1GjvWjQNMr3+B663HSOfPWHcRERERER06BnnkTOoKrrce97zOJ6wJiYiIiIjoMB3DxdDfoJp7gr/PlNqtNzOpD/HLqx9g3lg2XvsK+dgjsT91BddNLTa7uWu4l3kN4BTeq30B2bzUvPYST9Y2TS1ppzCTWsFK/gymTckclQFANX0BGwowk72DldgTbCaN9KcQz/4a59dPAl1l6m8mewdpPb07L/EkdBsVSz30eoOSfBnfqEC8YAn+jPqUPsSl0gfddaG9ROnWJr5ROnVmPrYOa53Z162oC+C92heYL9zFppFekvHew08656t4FzeSJdP/7NVdZ3o9mBMMrJM3qKZ/g79XOq2EM5KMXz78pOscd8r7a0wXTMdnLa8Hu8Wv8A83f9/VsjsjyYjb5ttbXkgyVh+ex3zUei7c0FDM3cLNjAIVACBBSn2Kh/kEeoqgK6ZlJBUgVSghzx8RiIiIiFw7Zi15IhDZMAVXALCjPMJGzDQmK/oBVrJi3BWU251xZ9pX2NSDqZnsr7sflIt3cSN229JV8jV2lNv4h65xaw7LYN6XuYx77QAPAF6jkrmMfO5NV7rDdRJy6QriACpJ83G8QWntEXZwCu89tAZ4XyEfu20K8KAf229Q0kybAFTT1joTdXtP/gq7XSmFytoF3DOnV0v4JnatJ99g6OfYHDAB2FFL2LAtw2tU1izHp5bwTZ/rwRHtK2wme7vu7tjWw0s8CfWWF2oJG7En3ssAoJiOIdkO8ABAhaokEZNz6KkGAEARTxUVgArlZr80RERERDTIsQrydnO/wTcqRCtc4Y7oclgTgQlQwoZpspLp9S+wmhL/NoKW6q1O6153q9hLPDFahSQZqzWjO+MdXCrImDGldFOGLtKHer538J4kNu1kxAO4MUbMvM/avdJbK56Jcrtn0pUbPZOVnMH5gtx1HMbxxguWVs928AfMpK7gUrusd7CatbQcF+9iQxHH1JUudQpQH1mCaIgAUDXnewer2VMimCrogXHik3bdiPMsY9XSFbW7zs7gfHufcb7stc9x+5yZyovX+OZW7znuKW8KAErY6jk252ZSH2K1pl9jrce4XvtQvxZN9QAAxbLeQnkK8ULn+C/VriAujdCKX0wjqQBIFVBrtdBqtdBq1VBISYCawS3bY0tgOSUBkJD6NNm3tY+IiIiI+jtGQV5n6vuZ7K8hJ/QH+OgZ/MJotau86WoVms+bgi/5mgg0IGPV0kVvN7fZfkh+r6s73klMJz6B3O5y5r4MgB44loyunCchfyrrO+rYHbemjsQnIkBRbuNJTm/5TF3pHbunvURF1QPmri6XJzG/3t2dsPq01K73rnT5FdFy+LQ3aJrJ3jHlexLz6yLtzsbL3vr1lXGOzecMenl/LYJwu6UXuurhJOaXxTneqXlsrY1+gPP5D7q7WkbPIG78QLDV6Gxve43Kza9Q1a+p6egZnC994HkG0eJTBUAKha6umVEk8p8iBUB5ahvlIZEvodUqIZ9giEdERETkxTEK8hrY0fuM7WQud7VItcezqXVLAGC0TAHQu73FC5/0PPTubun/X/p513irXl7KAACR7m6OpyPtFpmd78w7AmQ78UpvXQDAfF60KFYyj7BjExQDAL6rYwdAfNlmX5c32K1ABNo9LYn6GDmbwHgmZm25nMWM0coZKP0c2y6vcBLTcdgG58Prwb1d7SWeyNeQb9eXGDPZI3G+0wKsPsJGTKTPpzsBn3saahUAUJAMhRDqeiWhAEClxu6YRERERAE4RkGePzy3rBwrnWC2n91a3bqJ/FS8i3v6GNGucXa2TkIu3cGlwoftlj60x4lem4i1EImIiIiOk2MU5HVacmaypnFKg1qmtK+Q18faxVN69zmbSUGmF/Sulurvh7R8eCiDjd3C7/UH91OYOW3de/iq6duo4BTeK3yIGZSwYTM5ynRMjPUaHjTrrV/Sh6bxeJaXdcZOO0b30PjJPml7W9dGYtcls90qGcH0wBbfUb1B6aYxRrR7XGC7xa7HSUwnPsD5kkh3KWt0CX5t2x12uChicQBS1jQez/IqrXPMHREREVEAjlGQdxLzqyIY28n8Bk+Kw4KLzsQgSF3B+bw+1gyv8c1ad9Aynfx5u/vkN2t3TYHeG+wW7+JJexZMt2XotVvszPDZ2z3U6A6oBxl+Bi0O7ebE2EUx5lCfpVR9hE3rTKCJRTFGLnMZ+Zx5nNwbVHN3uwLp6QU9j/RLF4GY6f20l3iin0u7bpEiSH+NSsGP8XpnsKBPmrKRthxXWp+QxbYrZ0Di0APKN6i2J/3ptpu7i3xX3Z7EdNLoEuzd6QUxwcpaugjN8XkTSyiEQjLSbEEkIiIi8uSYrZP3Ek/k26JFx4Z5XTRjjTox66LeuuZo/bxePeutuS6DHZt1+tB//beR18mzbtZ1rYlnux7egPXz+pS199g6edgx5zvoPFjPWVufcnTVWZ80hp5z3K/OJBmrpU5rrVHefnXj9bwNvna662JgnfWcCzc05OQYMn3OW6rQslkHr4i0MWZPyqLG1j4iIiIi145RSx7ERColMZX9wFYKY8p+ADPZ851Wl37r5+nLGIgxTfp+QF+w+wpWrFPxOylDXyLPS60+D96JT3ApKx/QJCNmL/EkZrce3knID8XU/d3r5+lltamzuHUNQn3MmOc6k04hnr2CS3YBHoxy+FlnZ3C+dgXvpXqvhUumAC9I83ljyQaDXgfG9Wsyvf5rrPZcM6f0JRj6XGeORLFeEksmOK9aLqFARERENKpj1pJ3tLRbY7paxmiQvi1jRERERETHxDFrySMiIiIiIppsDPKIiIiIiIgmCIM8IiIiIiKiCcIxeURERERERBOELXlEREREREQThEEeEQB8m4b8eQihz2XkfrDuHEZD7oGM0MUQ5AdFuFj3m4iIiIjId+yuSYQi0hf1BbgBsUbbxyXk3+1K1IeG3OcxZLY7W6TlGkrvc4U3IiIiIjocbMk75nZz13AjdAH59EvrrkNQRFpOw7TG/MH4oYZK1wYVypcy0t92bbTRG+AREXlzSJ9/REQ0kRjkHWtvUN14DQDYUcqoWncfKA05OQlFBYb1d9SMrpUXOy9zQFZ8oG9/IB6XrH/3eHsdny5aNw4L9PoFeBJWf8ZWPKIe36Z77tWD0vWZ8Xlu2EfMABpy7XxkpL8dnJP1s8f6dxcNgKogGWKgR0REo2OQd6ydxPzqKQDATGoR89bdHu3mriEfuusqaCymY8ioErK1PBIDYiTtaxmxLxWoPcFVx+l3JOsmAID0zmnrprbERzUUHAd6/QO87I0S1t+2bvfK/EA5yoMp0TH2bXroZ4Yn2yqUL2M2nw8drj6Lognka1lIUJBMM8wjIqLRMMg75qbXv8D11mOk82esuzzb3XqNHevGQYppJBVAyj7E+oAAD9BQ+EdVBFMf19C632q/7MbPGQ9S/R60ukUdBnoHFeAB+KGAjW0gtZgCtjdQcD0hDBEV/yBG26aW9c+Mz9Yx8GNmoCjWPxOfObXlFABA+cPwgMzxZ1F0HQ+zEqAkwTiPiIhGwSCPDpmG3E0FkLJ4ODjCA/AdtrYBLH6K9XeHpfViWKBXPLgAD4D2hw2oSGH5o2WkoGLjD2zLI/JkLourPk+GFH3/KrJz1q2ji65/ihQA5SZb74mIyDsGeWNMTIpyDSUN2M3dRT50ATdCF3BDvotSz7f/SzwJXUA+9wbAG5TSYkIVManKV9i1SWvsvxG6gBt9Jl7plOENqoPKULzbzmtDAYASNizvIcpmUbyFjApIq8kRfl3vFn0nbvt3/B0n7zAo0EseWIDXbrVcXEYCp7EwB6j/WOh56NO+lhG6KCP3g4bi12nIxjjFz9MeloKwsuR5Ue6zREQR6YshyF9rImjXl5MQS0pYH1TdpIUowwPZVIYQ5M/TKPYcm9t83XBaBt0Pxa73D12Ukf66TwkcpBXn2GYsmz7GTRyzwU09uEkLF9cDOmnNY2e/7Mxfa6f4QFzLPcd5INwcm3PePosSuJqVADWDW2zNIyIijxjkHQGVtQu4lyl1ukCqJXwTE8Ffj62XeBK6jG8UMaEKAOwoj3CvTxDnzGtU1i5jo6cM7sbd2Sk+VcRkJck+Dz0/5EwPXvoyB+Wk6aHYZrzau3m07rc6yxjof9t16bTXL9CzCirA63TVFN28okj+jTSgy6aKjd/GkHyqQDU2bSvIXB9tAofiA0ueUKGWk4hZ69vwfQHpizFkyqb/Uc4gZjfJhKO0omtssqyaygCo2wqS1/usZ+goXzdcluGHHOTrya73B1QoT9dGS+uWm3pwmNb59aB10vb8KNJPEU/Lqjj+31nzC57zY3PJ42dRNLkKCYDy1OZ8EREROcAgb+y9xo4KzKSu4FLrMa637mA1e0oEXoXelrEd5REqOIX3CndwvfUY12tXEAeArtkzz+B867HY39L3D9FThhQAlLBlPIMkPtHze6zvk7Hafg/xSq+f7MoT0FCrAJBW0S/GOzzDAr0AAzwYXTU7M3VGf7YKaUCXTXUbkBYLqN1voXXfKLeCp15bRb5NI1kG0M7TyFcCtjO4ZZOvWs5AMY+XvFFACgDKT3uCTSdpta/XRMvpXBaFG5YyQEWmYM3VWb5uuCuDhtxvM1BhPhd6+mXrXeYmrXtu6sFRWjfXw7e3RNquOmuh9rEYw2YvgeVFCYCE1K/8a9XHDzk8LVs3Wrg5Njvlm8gNmWXTtWgSqxKASm20IJOIiI4tBnlHwEz2DtL5M5gGxIyY6yuIA9jZeGnphgk9uPoCckIPqKJnsDDo2cqp1JXuMizLAICdWm+g6dx32FIBxGP9H+reXkep/eClP3wuFtoPjq37o06kMFitYd3SsfW9dYtf9K6ac6tIGkHk20ms9umyCYg6KX2U0OshisTPxEmvfG+beigxWUUKhXae0ANffbyQ7WQTKRTulzrjJd9OYLlvkDwsrTHJTgqFz9aRaAfTUSQ+eijGQtkELMPzdcNlGfTW1+5zoad/P9/9g4CbtJ64qYfhaZ1fDxpyv9PTdtUZht6jiY9KaN0vIe/DeFuji2voegbKXArZ/6P/Z4TzY7OKYv3/yCI1pyLzZcym6+wooojFAahb+M66i4iIyAEGeUfATMzaAjaLmX6TtNkshTCff4zrrU96trsRX/Zv9s2jod8smgbrrJs+Mrpq/o25RSOK2Cz6dtlM/Sxh3TQCTQ9uFSTN3WLNXWYbNi0Mi8uwliLxUQut+/me7cPTGpPs9KZr1wUqqFnrwiZ93zIM5bIM329BdXou3KT1wqbMfethaFoP18PcAmwWCRhDHo6tS8y6gYiIaCwwyCPqMSzAMwQT6ImumoD6VLQOGK9kGcCALpt0uLTvK9ZNfblJe7TogfEhi75f0ruIZiFtK7Zde/1QLCShbEvI6t1S22PviIiIDhmDvKNIe4mKCiB+Uu8+OY7q2B0ai5zGwtiNO+kX4EnI3rAbo+d3oGd0Eeyvb5dN3+itVHNZ0xglyyvALrJdbLtkGq0vccRG7tbogMMyGDMnOuki6yZtP8U/HFSg6OZ6EDPBYru3m6GxXt1Bir67jk8XB7XGuTk2K/0aWPzUh+61VsZ45aPSIkpEROOGQd6RYBr3pr3Ek7VH2BnjLpTTC8bEMHZjBs2McScbKNg/gR2wQQFeCetv95uMxcdAzzRWq+dh835LvHefLpt+Ov2OmHRi7UERWsDvZc8YF6Yg2TWVvYbiA30yFJtuhv5yWYZ3l5HSW2Dlry3pv7YsaeEirREQKn8wZnoUSzoku2blDJbz68HoxqrgpjE+7Ycicp8bLdH9HdYSCs6P7QBpBWwMG69MREQ0AIO8I6CSvNxZby52W7Tipa7gvNcnXNOadjdCt1EBAOX24PXsXJiORQAAO5nbuDdknbzEckp0QTz0KG9YgGf8HXCgN2Ss1ul3xKyOQXfZjL4vJhZRy0nErlvHKtms2RaAxEfGLI9JxNrvLZYzwJyYKCNo7sqQQF6fQVJ9akn/1Nrq5iKtHhCinNHTGe/fb2Cu/9xcD4lkFpK5u/F1sb6ktJhC/xIf3hIKbo7toGgF0WU7tRz8NU5ERJOJQd5RI51CPHsFl/Lj2YoHiOUULhXk/pPDmCWuQqz7e8umS9xBcRrgGQYHeqOscWbM9LfcZx0tsZQCoH5v7QzntyjWPxPTyDs5jcFIIH+jgOyiuQSSWHLgM5sJRALhsgzv5lH7OItUVwAmIbX8sPc6cpw2gfyNLFJz5jQF1D4Tsz8eDBfXw9vrKH2chWSUd05C6uMaSskFS0KzgJZQcMTFsR0IDYUNFZCyuNpzgRERETnz1qtXr/5k3WgViYiWGTpYu7lruJd5jXjhsfdWu6OgmEYoqUDK1lBaP9jHO8BYlFqsWdbRL8Az0xd9tnRDk5ZrnICBaEwUH4SQLKdQsJtZdCRFpC8moSwW0PKxVVnLyYhlVKQKLeT9y5aIiI4ZtuTR4UvkUUgBamYNuYPsp2V4O2ZZEN5JgIcBLXpENF4U3Owa+zgqDcWvb4olFvyk5bCWUYFUgQEeERGNhEEejYVEvoAUVGRiaRT9exJzSHTJS81JkOZSKDgK8Ax6oLcsQZqTkGIrHtFY6YwR1Mc+fj7KmD8Nuc+NsZOq+EEo6VM0phWRjmWgSlnUGOEREdGIGOTRmEgg3yogJQEHPCBHeDuB/GcllD7LI+E4wDNEkXi/hNJnJeQZ4BGNl7fX8dA8RtAvcxKyH1vHT44gCkBKoVDqt2QDERGRcxyTR0RERERENEHYkkdERERERDRBGOQRERERERFNEAZ5REREREREE4RBHhERERER0QRhkEdERERERDRBGOQRERERERFNEAZ5REREREREE4RBHhERERER0QRhkEdERERERDRBGOQRERERERFNEAZ5REREREREE4RBHhERERER0QRhkEdERERERDRBGOQRERERERFNEAZ5REREREREE4RBHhERERER0QRhkEdERERERDRBGOQRERERERFNEAZ5REREREREE4RBHhERERER0QRhkEdERERERDRBGOQRERERERFNEAZ5REREREREE4RBHhERERER0QRhkEdERERERDRBGOQRERERERFNEAZ5PtNyMkKhEOR00brrEBSRltOwL8mgfUREREREdFRNbpBXTCMUCsGvWEsrpiHLIYRCnVdv3hoKGyoAQFWe9gmgikib8giFQgj1ZuQDDTk5CUUFoFn36dtUBckQAz0iIiIiokkyuUGej7ScjFhSgSritwGiSK5KAAAptYyEdfcBKqZjyKgSsrU8ElHrXgDRBPK1LCQoSAYSZBIRERER0WFgkDeU0TonIVuoodVqtV95myguul5Cq9VCyW4nACCBfDuPAlLW3X4oppFUACn7EOt2AZ4huo6HWQlQkjatkkREREREdBQxyBvqO2ypAFKfYt22SWzcaMjdVAApi4cDIzwhuv4pUgCUmznbXp1ERERERHS0jBjkifFlck4TwUVaTDoiJh6xCxo0FHNpyO3xaDLkdNEmHQCtiFxaNqUNQZbTKNonFvmax8wlFWuiAAU5zs5FnQFA8RYyKiCtJjE8xAOABK5mJUDN4JZfRSYiIiIiokMzYpCn2yogHYoho3QGralKBjFLoFNMx5DMKDClgqokEZOtAaGG3FoSGUU1pQVUVUEyZp0oROvkO3TMnENazhRUJaEAgJLsDuJ6yhwM53UmFJ8qACSsJp2FeAAQTa5CAqA8ZZRHRERERHTU+RLkqUoGinnMWk0fa2aeYVIfJ4ZUAbX2mLQaCqk+rUjxlGUMXA0FkSm6YpHiLZGvlEWh1hkvVxOJD0hA4+zc1hk01CoApFW4iPGAaBKrEoBKzTZwJCIiIiKio8OXIA9IodAqdcasRRNYtkQ6ooUphUI+YepGGEUir48J64rcoljP5y1j4KJIWDM1xp8hhUJpvWsWSTcxTo/oOkrWoC1V6Jp0pVVaH+09HHBXZ+iMH4zHXJYtilgcgLqF76y7iIiIiIjoSPEnyLNZLiCRb6HVyuvb9RYmKEhax64Z3SGtrUhaEWm5M8Zv4Dg7aQGnrduOPA91RkREREREx54/QZ7ftBzkWBLK0EF2essVERERERERAQcX5OndAaWsaWyZ5WXq/li8lYEKQMqax6K10OoZZ3caC5J9N0PR1fEoc1dngl4frlv4jLF8k9giSkRERER0vBxQkAecXhCThayli9AcRiDx2Ol2EKMVc0jftAZueiAEBTdzeqZaETk5JCYsOeLc15kxtm4DBUfpdVoBG57G8hERERER0bg5sCAvuv4QWQli+v+YdYxZCObVFk4vSAAAJRlr748lMzCt0NCWuJqFBEDN6GljSbFOXCoFkcsBKKZ7x8uZllwQ6wi6T+umzgxichoVGy6iPK2wARVAatk6spKIiIiIiI6aAwvygCjWS2L6/2HBV3S9hFrWHKRJkFIF1AoioOsSXUepkIVk7JAkpAo1lK4uWBIeRc7rrC1xVQSGmVuW9QT70VDYUAEpi6uM8YiIiIiIjry3Xr169SfrRqtIJGLdROOsmEYoqUDK1lBaH9wBU8vJiGVUpAot5BnkEREREREdeQfYkkcHJpFHIQWomTWYe4r20HJYy6hAqsAAj4iIiIhoQhyTIK+ItGU8W/9X2mE3x/GWyBeQgopMLI2iXaCnFZGOZaBKWdQY4RERERERTYxjEuQdRwnkWwWkJMB2yswoACmFQs8yDEREREREdJRxTB4REREREdEE8dySFwqFrJuIiIiIiIjokHkO8oiIiIiIiGj8MMgjIiIiIiKaIAzyiIiIiIiIJsj/H4nZQ7Kg9bmLAAAAAElFTkSuQmCC;" vertex="1" parent="1">
          <mxGeometry x="380" y="1100" width="889" height="471" as="geometry" />
        </mxCell>
      </root>
    </mxGraphModel>
  </diagram>
</mxfile>
